<?xml version="1.0" encoding="utf-8"?>
<!-- Generator: Adobe Illustrator 24.2.1, SVG Export Plug-In . SVG Version: 6.00 Build 0)  -->
<svg version="1.1" id="Слой_1" xmlns="http://www.w3.org/2000/svg" xmlns:xlink="http://www.w3.org/1999/xlink" x="0px" y="0px"
	 viewBox="0 0 200 160" style="enable-background:new 0 0 200 160;" xml:space="preserve">
<g>
	<path d="M182.9,11c-0.1-6-5.1-11-11.2-11H28.3c-6.1,0-11,5-11,11l-0.1,104.9c0,6.1,5,11,11,11h55.1c-0.6,10.9-5.2,16.5-13.7,16.5
		h-5.5c-4.6,0-8.3,3.7-8.3,8.3s3.7,8.3,8.3,8.3h71.7c4.6,0,8.3-3.7,8.3-8.3c0-4.5-3.7-8.3-8.2-8.3h-5.6c-8.5,0-13.1-5.6-13.7-16.5
		h55c6.1,0,11-5,11-11L182.9,11z M166.2,99.3H33.8V16.6h132.4V99.3z M22.8,11c0-3,2.5-5.5,5.5-5.5h143.4c3,0,5.5,2.5,5.5,5.5v88.3
		h-5.4V13.8c-0.1-1.5-1.3-2.8-2.8-2.8H31c-1.5,0-2.8,1.2-2.8,2.8v85.5h-5.4C22.8,99.3,22.8,11,22.8,11z M138.6,151.7
		c0,1.5-1.2,2.8-2.7,2.8H64.1c-1.5,0-2.8-1.2-2.8-2.8c0-1.5,1.2-2.8,2.8-2.8h71.7C137.3,148.9,138.6,150.1,138.6,151.7z
		 M116.9,143.4H83.1c3.4-3.8,5.4-9.3,5.8-16.5h22.2C111.5,134.1,113.5,139.6,116.9,143.4z M177.3,115.9L177.3,115.9
		c-0.1,3-2.6,5.5-5.6,5.5H28.3c-3,0-5.5-2.5-5.5-5.5v-11H31h138h8.3V115.9z"/>
	<path d="M108.3,110.3H91.7c-1.5,0-2.8,1.2-2.8,2.8c0,1.5,1.2,2.8,2.8,2.8h16.6c1.5,0,2.8-1.2,2.8-2.8
		C111,111.6,109.8,110.3,108.3,110.3z"/>
	<path d="M89,52.4H66.9c-1.5,0-2.8,1.2-2.8,2.8v11c0,1.5,1.2,2.8,2.8,2.8H89c1.5,0,2.8-1.2,2.8-2.8v-11C91.7,53.6,90.5,52.4,89,52.4
		z M86.3,63.4L86.3,63.4H69.7v-5.5h16.6C86.3,57.9,86.3,63.4,86.3,63.4z"/>
	<path d="M55.9,80.1h63.7l2.7,8.9c0.3,0.9,1,1.6,2,1.9c0.9,0.2,1.9,0,2.6-0.7l3.9-3.9l6.7,6.7c0.5,0.5,1.2,0.8,1.9,0.8
		s1.4-0.3,2-0.8l7.8-7.8c0.9-1.1,0.9-2.8-0.1-3.9l-6.7-6.7l3.7-3.7c0.7-0.7,1-1.7,0.7-2.6c-0.2-0.9-1-1.7-1.9-2l-9.1-2.7l0.1-38.8
		c0-1.5-1.3-2.7-2.8-2.7H55.9c-1.5,0-2.8,1.2-2.8,2.8v52.4C53.1,78.8,54.3,80.1,55.9,80.1z M136.9,76.7l6.4,6.4l-4,4l-6.1-6.1
		c-0.7-0.7-1.6-1.1-2.5-1.1s-1.8,0.4-2.5,1.1l-2,2l-5.4-18l18.2,5.2l-2.1,2.1c-0.6,0.6-0.9,1.4-0.9,2.2S136.3,76.1,136.9,76.7z
		 M117.4,58c-0.3-0.1-1.9-0.2-2.8,0.7c-0.7,0.7-1,1.8-0.7,2.7l3.9,13H58.6V41.5h71.7v20.4L117.4,58z M58.6,27.6h71.7v8.3H58.6V27.6z
		"/>
</g>
</svg>
