<?xml version="1.0" encoding="utf-8"?>
<!-- Generator: Adobe Illustrator 25.2.3, SVG Export Plug-In . SVG Version: 6.00 Build 0)  -->
<svg version="1.1" id="Слой_1" xmlns="http://www.w3.org/2000/svg" xmlns:xlink="http://www.w3.org/1999/xlink" x="0px" y="0px"
	 viewBox="0 0 452 179" style="enable-background:new 0 0 452 179;" xml:space="preserve">
<style type="text/css">
	.st0{fill:#4A46FF;}
	.st1{fill:none;stroke:#4A46FF;stroke-width:4;stroke-miterlimit:2.9238;stroke-dasharray:40,40;}
</style>
<path class="st0" d="M69.4,61.8c17,0,31.2,5,42.4,14.9c11.4,9.9,17.1,24,17.1,42.2c0,18.8-6.1,33.5-18.4,43.9
	C98.4,173,83.1,178.1,65,178.1c-15.2,0-28.4-3.2-39.7-9.7C14,161.9,5.8,152,0.7,139l38.7-22.1C43,129,51.6,135,65,135
	c6.3,0,11.1-1.4,14.4-4.2c3.5-3,5.2-6.9,5.2-11.9c0-5.1-1.7-9.1-5.2-11.9c-3.3-2.8-7.9-4.2-13.6-4.2H10.1L17.3,0.8h102.2v42.4H58.3
	L57,61.8H69.4z M414.8,71.5c11.1,3.5,20,9.4,26.8,17.9c6.8,8.4,10.2,18.6,10.2,30.5c0,18.7-6.1,33.1-18.4,43.2
	c-12.2,10.1-27.4,15.1-45.4,15.1c-14.4,0-27.2-3.3-38.4-9.9c-11.1-6.6-19.1-16.4-24.1-29.3l38.7-22.1C367.8,129,375.7,135,388,135
	c6.3,0,11.1-1.5,14.4-4.5c3.5-3,5.2-6.9,5.2-11.9s-1.7-8.8-5.2-11.7c-3.3-3-8.1-4.5-14.4-4.5h-9.4l-17.1-25.3l27.8-34h-58.3V0.8
	h112.8v35L414.8,71.5z"/>
<circle class="st1" cx="225.6" cy="89.8" r="75.5"/>
<path class="st1" d="M125,0.1L327,178.9"/>
</svg>
