<svg width="390" height="493" viewBox="0 0 390 493" fill="none" xmlns="http://www.w3.org/2000/svg">
<g clip-path="url(#clip0)">
<path d="M315.719 382.846L122.309 448.975L-112.312 386.109L81.1023 319.98L315.719 382.846Z" stroke="#4A46FF" stroke-width="0.4" stroke-miterlimit="10"/>
<path d="M316.596 345.219L123.186 411.348L-111.435 348.482L81.9793 282.354L316.596 345.219Z" stroke="#4A46FF" stroke-width="0.4" stroke-miterlimit="10"/>
<path d="M316.596 345.219L315.719 382.846L122.309 448.975L123.185 411.349L316.596 345.219Z" stroke="#4A46FF" stroke-width="0.4" stroke-miterlimit="10"/>
<path d="M123.186 411.348L122.309 448.975L-112.312 386.109L-111.435 348.482L123.186 411.348Z" stroke="#4A46FF" stroke-width="0.4" stroke-miterlimit="10"/>
<path d="M-111.435 348.482L81.9793 282.354L81.1024 319.98L-112.312 386.109L-111.435 348.482Z" stroke="#4A46FF" stroke-width="0.4" stroke-miterlimit="10"/>
<path d="M81.9785 282.354L316.596 345.219L315.719 382.846L81.1016 319.98L81.9785 282.354Z" stroke="#4A46FF" stroke-width="0.4" stroke-miterlimit="10"/>
<path d="M95.847 333.872C167.749 342.548 228.651 327.922 231.875 301.205C235.099 274.488 179.423 245.796 107.521 237.12C35.6185 228.445 -25.2832 243.07 -28.5069 269.787C-31.7306 296.505 23.9446 325.196 95.847 333.872Z" stroke="#4A46FF" stroke-width="0.4" stroke-miterlimit="10"/>
<path d="M17.3716 239.36L45.1177 198.04C4.12436 206.872 -0.90322 229.458 33.8775 248.486L2.33465 306.909C-44.2409 281.43 -37.5208 251.181 17.3716 239.36Z" stroke="#4A46FF" stroke-width="0.4" stroke-miterlimit="10"/>
<path d="M-26.6658 280.698L12.222 228.911" stroke="#4A46FF" stroke-width="0.4" stroke-miterlimit="10"/>
<path d="M2.33487 306.909L33.8777 248.486C68.6585 267.514 130.08 275.777 171.063 266.943L186.02 331.622C131.143 343.451 48.9026 332.379 2.33487 306.909Z" stroke="#4A46FF" stroke-width="0.4" stroke-miterlimit="10"/>
<path d="M58.4569 327.265L75.7943 263.692" stroke="#4A46FF" stroke-width="0.4" stroke-miterlimit="10"/>
<path d="M124.355 336.133L125.011 270.312" stroke="#4A46FF" stroke-width="0.4" stroke-miterlimit="10"/>
<path d="M186.021 331.622L171.064 266.943C212.051 258.11 217.075 235.537 182.298 216.496L201.064 264.062C247.633 289.553 240.898 319.794 186.021 331.622Z" stroke="#4A46FF" stroke-width="0.4" stroke-miterlimit="10"/>
<path d="M224.657 314.517L199.92 254.169" stroke="#4A46FF" stroke-width="0.4" stroke-miterlimit="10"/>
<path d="M230.054 290.284L203.949 236.07" stroke="#4A46FF" stroke-width="0.4" stroke-miterlimit="10"/>
<path d="M-23.6176 258.986L-19.8051 254.359L-17.902 252.045L-14.0886 247.414C-12.9457 246.019 -11.4205 244.175 -10.2793 242.786C-9.70548 242.092 -8.94361 241.167 -8.373 240.472L-4.55961 235.842C-3.41669 234.446 -1.89465 232.601 -0.750253 231.213L1.15601 228.9C2.29893 227.505 3.825 225.657 4.96622 224.268L8.77875 219.641C9.34936 218.947 10.1112 218.021 10.685 217.327C11.8279 215.932 13.3508 214.084 14.4952 212.696C5.87376 223.167 12.0116 236.532 33.8655 248.482C68.6463 267.51 130.067 275.774 171.051 266.94C198.762 260.968 210.037 248.709 203.68 235.528L216.703 262.528L219.305 267.932L220.622 270.636L223.224 276.04L225.81 281.436L227.128 284.14L229.729 289.543C238.217 307.219 223.131 323.629 186.021 331.622C131.125 343.456 48.9014 332.385 2.32989 306.904C-26.9316 290.9 -35.1477 273.01 -23.6176 258.986Z" stroke="#4A46FF" stroke-width="0.4" stroke-miterlimit="10"/>
<path d="M17.3716 239.36L45.1177 198.041C4.12436 206.872 -0.90321 229.458 33.8775 248.486L2.33468 306.909C-44.2409 281.43 -37.5208 251.181 17.3716 239.36Z" stroke="#4A46FF" stroke-width="0.4" stroke-miterlimit="10"/>
<path d="M-21.2685 256.465L16.2507 210.816" stroke="#4A46FF" stroke-width="0.4" stroke-miterlimit="10"/>
<path d="M14.5073 212.7C19.6075 206.505 29.8751 201.321 45.1082 198.038L17.3717 239.361C-3.02791 243.763 -16.7725 250.697 -23.6183 258.987L-19.8058 254.36L-17.9027 252.045L-14.0893 247.415C-12.9464 246.019 -11.4212 244.175 -10.2799 242.786C-9.70615 242.093 -8.94428 241.167 -8.37367 240.473L-4.56029 235.842C-3.41736 234.447 -1.89532 232.602 -0.750928 231.214L1.15534 228.9C2.29826 227.505 3.82433 225.658 4.96555 224.269L8.77808 219.642C9.34869 218.947 10.1106 218.021 10.6843 217.328C11.84 215.936 13.3629 214.088 14.5073 212.7Z" stroke="#4A46FF" stroke-width="0.4" stroke-miterlimit="10"/>
<path d="M186.02 331.623L171.063 266.944C212.05 258.111 217.074 235.538 182.297 216.497L201.063 264.062C247.632 289.553 240.897 319.794 186.02 331.623Z" stroke="#4A46FF" stroke-width="0.4" stroke-miterlimit="10"/>
<path d="M201.06 264.075L182.294 216.51C147.517 197.469 86.0939 189.212 45.1181 198.041L17.372 239.361C72.2653 227.536 154.488 238.597 201.06 264.075Z" stroke="#4A46FF" stroke-width="0.4" stroke-miterlimit="10"/>
<path d="M144.932 243.717L140.381 201.291" stroke="#4A46FF" stroke-width="0.4" stroke-miterlimit="10"/>
<path d="M79.0345 234.849L91.1648 194.671" stroke="#4A46FF" stroke-width="0.4" stroke-miterlimit="10"/>
<path d="M229.712 289.543C225.633 281.079 216.143 272.326 201.06 264.075C154.488 238.596 72.2528 227.519 17.3697 239.356L45.1157 198.037C86.0938 189.211 147.517 197.469 182.297 216.497C193.576 222.663 200.65 229.197 203.696 235.519L216.703 262.529L219.305 267.932L220.622 270.637L223.223 276.04L225.81 281.436L227.127 284.14L229.712 289.543Z" stroke="#4A46FF" stroke-width="0.4" stroke-miterlimit="10"/>
<path d="M103.72 268.63C157.419 275.109 202.903 264.186 205.31 244.233C207.718 224.28 166.138 202.852 112.438 196.373C58.7389 189.893 13.2553 200.816 10.8478 220.769C8.44027 240.722 50.0205 262.15 103.72 268.63Z" stroke="#4A46FF" stroke-width="0.4" stroke-miterlimit="10"/>
<path d="M132.194 213.97C175.409 198.397 206.034 173.539 200.596 158.449C195.158 143.358 155.717 143.749 112.501 159.322C69.2852 174.895 38.6603 199.753 44.0983 214.844C49.5364 229.934 88.978 229.543 132.194 213.97Z" stroke="#4A46FF" stroke-width="0.4" stroke-miterlimit="10"/>
<path d="M44.1882 206.889L55.9767 153.309C52.256 165.13 71.4942 168.956 98.9508 161.852L111.746 220.319C68.584 231.482 38.3357 225.472 44.1882 206.889Z" stroke="#4A46FF" stroke-width="0.4" stroke-miterlimit="10"/>
<path d="M49.5114 221.113L59.3644 162.354" stroke="#4A46FF" stroke-width="0.4" stroke-miterlimit="10"/>
<path d="M73.7486 225.931L74.7787 165.417" stroke="#4A46FF" stroke-width="0.4" stroke-miterlimit="10"/>
<path d="M111.746 220.315L98.9507 161.849C126.407 154.743 151.679 139.403 155.403 127.578L200.497 166.451C194.644 185.028 154.911 209.148 111.746 220.315Z" stroke="#4A46FF" stroke-width="0.4" stroke-miterlimit="10"/>
<path d="M152.639 205.514L124.962 152.433" stroke="#4A46FF" stroke-width="0.4" stroke-miterlimit="10"/>
<path d="M184.48 186.187L145.213 140.139" stroke="#4A46FF" stroke-width="0.4" stroke-miterlimit="10"/>
<path d="M200.497 166.442L155.403 127.568C159.123 115.747 139.885 111.925 112.429 119.028L132.935 153.006C176.088 141.846 206.339 147.856 200.497 166.442Z" stroke="#4A46FF" stroke-width="0.4" stroke-miterlimit="10"/>
<path d="M155.404 127.578C151.68 139.403 126.408 154.743 98.9516 161.849C72.226 168.764 53.2838 165.326 55.7311 154.233C55.3716 155.854 54.8946 158.021 54.5385 159.645C54.3587 160.453 54.1203 161.538 53.9406 162.35C53.581 163.971 53.1072 166.134 52.7478 167.758C52.3884 169.383 51.9114 171.549 51.5552 173.17L50.9572 175.875C50.6011 177.499 50.1207 179.663 49.7646 181.287L43.7982 208.344C39.9517 225.779 69.7319 231.188 111.747 220.315C154.922 209.147 194.645 185.028 200.497 166.442C202.249 160.884 200.769 156.449 196.682 153.265" stroke="#4A46FF" stroke-width="0.4" stroke-miterlimit="10"/>
<path d="M44.1892 206.889L55.9776 153.309C52.257 165.13 71.4952 168.956 98.9517 161.852L111.747 220.319C68.585 231.482 38.3367 225.472 44.1892 206.889Z" stroke="#4A46FF" stroke-width="0.4" stroke-miterlimit="10"/>
<path d="M55.7315 154.233C55.7985 153.93 55.8817 153.62 55.9778 153.306L44.1894 206.886C44.033 207.377 43.9094 207.864 43.7984 208.34L49.7648 181.283C50.1209 179.659 50.6013 177.496 50.9574 175.872L51.5553 173.166C51.9116 171.546 52.3886 169.379 52.748 167.755C53.1073 166.131 53.5812 163.968 53.9407 162.347C54.1204 161.535 54.3588 160.45 54.5387 159.641C54.895 158.02 55.3719 155.854 55.7315 154.233Z" stroke="#4A46FF" stroke-width="0.4" stroke-miterlimit="10"/>
<path d="M200.498 166.442L155.404 127.568C159.124 115.747 139.886 111.925 112.43 119.028L132.936 153.006C176.089 141.846 206.34 147.856 200.498 166.442Z" stroke="#4A46FF" stroke-width="0.4" stroke-miterlimit="10"/>
<path d="M195.175 152.218L152.017 118.533" stroke="#4A46FF" stroke-width="0.4" stroke-miterlimit="10"/>
<path d="M170.937 147.4L136.602 115.467" stroke="#4A46FF" stroke-width="0.4" stroke-miterlimit="10"/>
<path d="M132.937 153.016L112.43 119.025C84.9731 126.132 59.7011 141.471 55.9772 153.293L44.1888 206.873C50.0424 188.313 89.775 164.183 132.937 153.016Z" stroke="#4A46FF" stroke-width="0.4" stroke-miterlimit="10"/>
<path d="M92.0445 167.814L86.4199 128.455" stroke="#4A46FF" stroke-width="0.4" stroke-miterlimit="10"/>
<path d="M60.2052 187.144L66.1674 140.748" stroke="#4A46FF" stroke-width="0.4" stroke-miterlimit="10"/>
<path d="M196.683 153.266C187.092 145.799 163.194 145.187 132.937 153.017C89.7752 164.184 50.0426 188.314 44.1898 206.89L55.9782 153.31C59.7022 141.489 84.9742 126.149 112.431 119.042C131.674 114.063 146.882 114.451 152.976 119.203C167.538 130.554 182.107 141.909 196.683 153.266Z" stroke="#4A46FF" stroke-width="0.4" stroke-miterlimit="10"/>
<path d="M111.957 157.808C139.447 147.902 158.928 132.091 155.469 122.492C152.01 112.894 126.921 113.144 99.4318 123.05C71.9421 132.956 52.4611 148.767 55.9199 158.366C59.3786 167.964 84.4673 167.714 111.957 157.808Z" stroke="#4A46FF" stroke-width="0.4" stroke-miterlimit="10"/>
<path d="M117.27 103.796C136.997 111.19 155.226 111.216 157.986 103.853C160.745 96.4912 146.99 84.529 127.263 77.1349C107.536 69.7409 89.307 69.7151 86.5475 77.0772C83.788 84.4394 97.543 96.4017 117.27 103.796Z" stroke="#4A46FF" stroke-width="0.4" stroke-miterlimit="10"/>
<path d="M157.201 105.264L146.737 48.9971C147.824 47.5648 145.247 44.937 141.003 43.1436L131.202 78.7187C150.498 86.8849 162.136 98.7711 157.201 105.264Z" stroke="#4A46FF" stroke-width="0.4" stroke-miterlimit="10"/>
<path d="M156.94 97.3114L146.679 47.2434" stroke="#4A46FF" stroke-width="0.4" stroke-miterlimit="10"/>
<path d="M147.615 87.7867L144.622 45.1445" stroke="#4A46FF" stroke-width="0.4" stroke-miterlimit="10"/>
<path d="M131.202 78.7186L141.003 43.1436C136.749 41.3424 132.416 41.0425 131.329 42.4749L87.3261 75.6886C92.2604 69.191 111.905 70.5478 131.202 78.7186Z" stroke="#4A46FF" stroke-width="0.4" stroke-miterlimit="10"/>
<path d="M112.347 72.8604L136.846 41.8522" stroke="#4A46FF" stroke-width="0.4" stroke-miterlimit="10"/>
<path d="M96.6046 71.7707L133.377 41.6121" stroke="#4A46FF" stroke-width="0.4" stroke-miterlimit="10"/>
<path d="M158.17 100.405C156.763 93.8203 146.339 85.126 131.202 78.7187C113.372 71.1693 95.2382 69.4357 88.6933 74.3417L92.9941 71.1148L95.1406 69.5066C96.4306 68.5399 98.1482 67.2561 99.4336 66.2901L103.731 63.0731L105.878 61.4648L110.171 58.2484L114.464 55.032L116.604 53.4317C117.892 52.4677 119.622 51.1681 120.897 50.2153L125.193 47.0009L127.339 45.3927L131.632 42.1762C133.077 41.095 137.066 41.4717 141.005 43.141C144.344 44.5539 146.642 46.4712 146.951 47.9245L158.17 100.405Z" stroke="#4A46FF" stroke-width="0.4" stroke-miterlimit="10"/>
<path d="M87.3249 75.6886L131.328 42.4748C130.238 43.9052 132.803 46.5278 137.057 48.329L113.319 102.23C94.0199 94.062 82.382 82.1758 87.3249 75.6886Z" stroke="#4A46FF" stroke-width="0.4" stroke-miterlimit="10"/>
<path d="M87.5776 83.6354L131.383 44.2266" stroke="#4A46FF" stroke-width="0.4" stroke-miterlimit="10"/>
<path d="M96.9032 93.1599L133.441 46.3299" stroke="#4A46FF" stroke-width="0.4" stroke-miterlimit="10"/>
<path d="M113.319 102.23L137.057 48.3289C141.314 50.1274 145.644 50.4299 146.736 48.9969L157.2 105.264C152.25 111.75 132.615 110.396 113.319 102.23Z" stroke="#4A46FF" stroke-width="0.4" stroke-miterlimit="10"/>
<path d="M132.174 108.088L141.215 49.6204" stroke="#4A46FF" stroke-width="0.4" stroke-miterlimit="10"/>
<path d="M147.917 109.178L144.688 49.8599" stroke="#4A46FF" stroke-width="0.4" stroke-miterlimit="10"/>
<path d="M157.2 105.264L146.736 48.9969C147.823 47.5646 145.246 44.9367 141.002 43.1434L131.201 78.7184C150.497 86.8846 162.135 98.7708 157.2 105.264Z" stroke="#4A46FF" stroke-width="0.4" stroke-miterlimit="10"/>
<path d="M146.949 47.9268L158.169 100.404C158.557 102.215 158.263 103.863 157.2 105.264C152.26 111.758 132.615 110.396 113.319 102.23C94.0226 94.0638 82.3821 82.1756 87.325 75.6884L131.328 42.4747C130.238 43.905 132.803 46.5277 137.057 48.3288C141.312 50.13 145.65 50.4219 146.736 48.9968C146.849 48.8456 146.927 48.6711 146.964 48.4859C147 48.3007 146.995 48.1097 146.949 47.9268V47.9268Z" stroke="#4A46FF" stroke-width="0.4" stroke-miterlimit="10"/>
<path d="M131.202 78.7186L141.003 43.1436C136.749 41.3424 132.416 41.0425 131.329 42.4749L87.3261 75.6886C92.2604 69.191 111.905 70.5478 131.202 78.7186Z" stroke="#4A46FF" stroke-width="0.4" stroke-miterlimit="10"/>
<path d="M88.6933 74.3418L92.9941 71.1148L95.1406 69.5066C96.4306 68.54 98.1482 67.2561 99.4336 66.2902L103.731 63.0731L105.878 61.4649L110.171 58.2485L114.464 55.0321L116.604 53.4318C117.892 52.4678 119.622 51.1681 120.897 50.2154L125.193 47.0009L127.339 45.3927L131.632 42.1763C131.518 42.2598 131.416 42.3595 131.331 42.4724L87.3258 75.6888C87.7157 75.1775 88.1762 74.724 88.6933 74.3418Z" stroke="#4A46FF" stroke-width="0.4" stroke-miterlimit="10"/>
<path d="M146.736 48.9971C146.415 47.3404 145.688 45.7894 144.62 44.4833C143.551 43.1772 142.175 42.1569 140.615 41.5139C141.369 40.4975 141.618 40.9071 141.002 43.1436C145.257 44.9447 147.823 47.5647 146.736 48.9971Z" stroke="#4A46FF" stroke-width="0.4" stroke-miterlimit="10"/>
<path d="M145.531 45.7736C146.312 44.7203 144.449 42.8184 141.339 41.4937" stroke="#4A46FF" stroke-width="0.4" stroke-miterlimit="10"/>
<path d="M146.678 47.2433C146.033 44.0964 143.596 42.0917 140.613 41.5165" stroke="#4A46FF" stroke-width="0.4" stroke-miterlimit="10"/>
<path d="M144.616 45.1524C144.43 42.4686 142.782 41.2913 140.61 41.5217" stroke="#4A46FF" stroke-width="0.4" stroke-miterlimit="10"/>
<path d="M141.003 43.1433C141.618 40.9069 141.38 40.5051 140.616 41.5137C137.617 40.243 134.089 40.3807 131.329 42.4747C132.416 41.0423 136.739 41.3554 141.003 43.1433Z" stroke="#4A46FF" stroke-width="0.4" stroke-miterlimit="10"/>
<path d="M141.339 41.4937C138.227 40.1717 135.083 39.9635 134.29 41.0044" stroke="#4A46FF" stroke-width="0.4" stroke-miterlimit="10"/>
<path d="M136.848 41.8468C138.389 39.8959 139.767 39.9971 140.619 41.5086" stroke="#4A46FF" stroke-width="0.4" stroke-miterlimit="10"/>
<path d="M133.376 41.612C135.694 39.7222 138.418 39.9129 140.615 41.5139" stroke="#4A46FF" stroke-width="0.4" stroke-miterlimit="10"/>
<path d="M146.949 47.9271C146.641 46.4712 144.341 44.5565 141.002 43.1437C137.071 41.4802 133.076 41.095 131.63 42.1789C132.047 41.8676 132.487 41.5879 132.946 41.3422C133.23 41.1849 133.623 41.0257 133.927 40.8913C134.595 40.6257 135.292 40.438 136.003 40.3321C136.838 40.2061 137.686 40.191 138.525 40.2872C139.262 40.3704 139.987 40.5364 140.687 40.7819C141.041 40.9101 141.387 41.0563 141.725 41.2202C142.145 41.4238 142.55 41.6583 142.936 41.9218C144.682 43.1074 145.989 44.8351 146.656 46.838C146.761 47.1536 146.867 47.5962 146.949 47.9271Z" stroke="#4A46FF" stroke-width="0.4" stroke-miterlimit="10"/>
<path d="M131.328 42.475C134.102 40.3908 137.616 40.2433 140.615 41.514C139.859 42.533 138.554 44.9375 137.058 48.3291C132.803 46.528 130.24 43.9027 131.328 42.475Z" stroke="#4A46FF" stroke-width="0.4" stroke-miterlimit="10"/>
<path d="M134.299 41.0151C133.516 42.0711 135.381 43.9704 138.474 45.2787" stroke="#4A46FF" stroke-width="0.4" stroke-miterlimit="10"/>
<path d="M137.489 40.7344C137.078 41.2888 138.053 42.2862 139.682 42.9751" stroke="#4A46FF" stroke-width="0.4" stroke-miterlimit="10"/>
<path d="M131.383 44.2266C132.609 43.0929 134.08 42.258 135.681 41.7874C137.283 41.3168 138.971 41.2232 140.615 41.5139" stroke="#4A46FF" stroke-width="0.4" stroke-miterlimit="10"/>
<path d="M133.441 46.3301C135.737 43.3839 138.438 41.7451 140.615 41.5141" stroke="#4A46FF" stroke-width="0.4" stroke-miterlimit="10"/>
<path d="M137.058 48.3293C138.555 44.9377 139.846 42.5234 140.615 41.5142C142.176 42.1571 143.552 43.1775 144.62 44.4836C145.689 45.7897 146.416 47.3407 146.737 48.9973C145.651 50.4224 141.315 50.1278 137.058 48.3293Z" stroke="#4A46FF" stroke-width="0.4" stroke-miterlimit="10"/>
<path d="M138.474 45.2783C141.578 46.5826 144.73 46.8085 145.53 45.7735" stroke="#4A46FF" stroke-width="0.4" stroke-miterlimit="10"/>
<path d="M139.682 42.9749C141.312 43.6638 142.971 43.7773 143.386 43.2295" stroke="#4A46FF" stroke-width="0.4" stroke-miterlimit="10"/>
<path d="M141.216 49.6206C141.783 45.9486 141.464 43.0234 140.615 41.5139" stroke="#4A46FF" stroke-width="0.4" stroke-miterlimit="10"/>
<path d="M144.689 49.86C144.486 46.1283 142.816 43.117 140.614 41.5166" stroke="#4A46FF" stroke-width="0.4" stroke-miterlimit="10"/>
<path d="M146.736 48.997C146.415 47.3404 145.688 45.7894 144.62 44.4833C143.551 43.1772 142.175 42.1568 140.615 41.5139C141.369 40.4975 141.618 40.9071 141.002 43.1436C145.257 44.9447 147.823 47.5647 146.736 48.997Z" stroke="#4A46FF" stroke-width="0.4" stroke-miterlimit="10"/>
<path d="M145.531 45.7736C146.312 44.7203 144.449 42.8184 141.339 41.4937" stroke="#4A46FF" stroke-width="0.4" stroke-miterlimit="10"/>
<path d="M143.386 43.2297C143.803 42.6838 142.831 41.6884 141.199 40.9811" stroke="#4A46FF" stroke-width="0.4" stroke-miterlimit="10"/>
<path d="M146.679 47.2436C146.033 44.0967 143.596 42.092 140.613 41.5167" stroke="#4A46FF" stroke-width="0.4" stroke-miterlimit="10"/>
<path d="M144.616 45.1527C144.43 42.4688 142.782 41.2915 140.61 41.5219" stroke="#4A46FF" stroke-width="0.4" stroke-miterlimit="10"/>
<path d="M141.003 43.1438C141.618 40.9073 141.38 40.5056 140.616 41.5142C137.617 40.2435 134.089 40.3811 131.329 42.4751C132.416 41.0428 136.739 41.3559 141.003 43.1438Z" stroke="#4A46FF" stroke-width="0.4" stroke-miterlimit="10"/>
<path d="M141.339 41.4937C138.227 40.1717 135.083 39.9635 134.29 41.0044" stroke="#4A46FF" stroke-width="0.4" stroke-miterlimit="10"/>
<path d="M141.199 40.981C139.572 40.2894 137.913 40.1805 137.498 40.7238" stroke="#4A46FF" stroke-width="0.4" stroke-miterlimit="10"/>
<path d="M136.849 41.847C138.39 39.8962 139.768 39.9974 140.62 41.5089" stroke="#4A46FF" stroke-width="0.4" stroke-miterlimit="10"/>
<path d="M133.376 41.612C135.694 39.7222 138.418 39.9129 140.615 41.5139" stroke="#4A46FF" stroke-width="0.4" stroke-miterlimit="10"/>
<path d="M141.236 41.0088C141.92 41.2998 142.569 41.667 143.17 42.1037C143.809 42.5659 144.387 43.1052 144.893 43.7092C145.057 43.9082 145.268 44.1753 145.412 44.3889C145.65 44.7377 145.868 45.1001 146.064 45.4741C146.227 45.7932 146.374 46.1205 146.503 46.4546C146.688 46.9369 146.834 47.4329 146.942 47.938C146.988 48.1209 146.994 48.312 146.957 48.4971C146.92 48.6823 146.842 48.8569 146.729 49.0081C145.638 50.4411 141.307 50.1386 137.051 48.3401C132.794 46.5416 130.241 43.9031 131.329 42.4753C134.103 40.3911 137.617 40.2437 140.616 41.5144C137.617 40.2437 134.09 40.3813 131.329 42.4753C131.415 42.3625 131.516 42.2627 131.631 42.1792C131.913 41.9798 132.283 41.7136 132.582 41.547C133.05 41.2718 133.54 41.0357 134.047 40.8411C135.584 40.2597 137.245 40.0823 138.87 40.3258C139.685 40.4522 140.48 40.6817 141.236 41.0088V41.0088Z" stroke="#4A46FF" stroke-width="0.4" stroke-miterlimit="10"/>
</g>
<defs>
<clipPath id="clip0">
<rect width="421.763" height="396.752" fill="white" transform="translate(-18.3604 0.603271) rotate(15)"/>
</clipPath>
</defs>
</svg>
