<svg width="682" height="253" viewBox="0 0 682 253" fill="none" xmlns="http://www.w3.org/2000/svg">
<circle cx="337.328" cy="92.0238" r="75.4816" stroke="#4A46FF" stroke-width="4" stroke-miterlimit="2.9238" stroke-dasharray="40 40"/>
<path d="M236.813 2.25781L438.737 181.149" stroke="#4A46FF" stroke-width="4" stroke-miterlimit="2.9238" stroke-dasharray="40 40"/>
<path d="M20.7444 217.388V242H15.1188V222.803H7.7352V242H2.1096V217.388H20.7444ZM40.5532 239.82C38.7483 241.602 36.545 242.492 33.9431 242.492C31.3413 242.492 29.1379 241.602 27.3331 239.82C25.5282 238.015 24.6257 235.812 24.6257 233.21C24.6257 230.608 25.5282 228.417 27.3331 226.635C29.1379 224.83 31.3413 223.928 33.9431 223.928C36.545 223.928 38.7483 224.83 40.5532 226.635C42.3581 228.417 43.2605 230.608 43.2605 233.21C43.2605 235.812 42.3581 238.015 40.5532 239.82ZM31.06 236.199C31.8335 236.972 32.7946 237.359 33.9431 237.359C35.0917 237.359 36.0527 236.972 36.8263 236.199C37.5998 235.425 37.9865 234.429 37.9865 233.21C37.9865 231.991 37.5998 230.995 36.8263 230.221C36.0527 229.448 35.0917 229.061 33.9431 229.061C32.7946 229.061 31.8335 229.448 31.06 230.221C30.2865 230.995 29.8997 231.991 29.8997 233.21C29.8997 234.429 30.2865 235.425 31.06 236.199ZM62.4117 242H56.3642L53.0943 237.359L49.8245 242H43.7769L50.0706 233.069L43.9879 224.42H50.0354L53.0943 228.78L56.1533 224.42H62.2008L56.1181 233.069L62.4117 242ZM78.8707 239.82C77.0659 241.602 74.8625 242.492 72.2607 242.492C69.6588 242.492 67.4555 241.602 65.6506 239.82C63.8457 238.015 62.9433 235.812 62.9433 233.21C62.9433 230.608 63.8457 228.417 65.6506 226.635C67.4555 224.83 69.6588 223.928 72.2607 223.928C74.8625 223.928 77.0659 224.83 78.8707 226.635C80.6756 228.417 81.5781 230.608 81.5781 233.21C81.5781 235.812 80.6756 238.015 78.8707 239.82ZM69.3775 236.199C70.1511 236.972 71.1121 237.359 72.2607 237.359C73.4092 237.359 74.3703 236.972 75.1438 236.199C75.9173 235.425 76.3041 234.429 76.3041 233.21C76.3041 231.991 75.9173 230.995 75.1438 230.221C74.3703 229.448 73.4092 229.061 72.2607 229.061C71.1121 229.061 70.1511 229.448 69.3775 230.221C68.604 230.995 68.2173 231.991 68.2173 233.21C68.2173 234.429 68.604 235.425 69.3775 236.199ZM108.644 242H102.808L98.0261 234.37V242H92.8927V234.37L88.111 242H82.2744L88.111 233.21L82.626 224.42H88.4626L92.8927 231.944V224.42H98.0261V231.944L102.456 224.42H108.293L102.808 233.21L108.644 242ZM114.92 235.32C115.53 236.96 116.936 237.781 119.139 237.781C120.569 237.781 121.694 237.335 122.515 236.445L126.734 238.871C124.999 241.285 122.444 242.492 119.069 242.492C116.116 242.492 113.748 241.613 111.967 239.855C110.209 238.097 109.33 235.882 109.33 233.21C109.33 230.561 110.197 228.358 111.932 226.6C113.69 224.818 115.94 223.928 118.682 223.928C121.237 223.928 123.359 224.818 125.046 226.6C126.757 228.358 127.613 230.561 127.613 233.21C127.613 233.96 127.543 234.663 127.402 235.32H114.92ZM114.815 231.382H122.374C121.858 229.53 120.616 228.604 118.647 228.604C116.608 228.604 115.33 229.53 114.815 231.382ZM155.04 224.42V229.483H149.802V242H144.528V229.483H139.218V224.42H155.04ZM170.096 224.42H175.37V242H170.096V240.347C168.854 241.777 167.107 242.492 164.857 242.492C162.536 242.492 160.556 241.602 158.915 239.82C157.274 238.015 156.454 235.812 156.454 233.21C156.454 230.608 157.274 228.417 158.915 226.635C160.556 224.83 162.536 223.928 164.857 223.928C167.107 223.928 168.854 224.643 170.096 226.073V224.42ZM162.888 236.339C163.662 237.113 164.669 237.5 165.912 237.5C167.154 237.5 168.162 237.113 168.936 236.339C169.709 235.566 170.096 234.523 170.096 233.21C170.096 231.897 169.709 230.854 168.936 230.081C168.162 229.307 167.154 228.92 165.912 228.92C164.669 228.92 163.662 229.307 162.888 230.081C162.115 230.854 161.728 231.897 161.728 233.21C161.728 234.523 162.115 235.566 162.888 236.339ZM196.819 242H190.842L185.216 234.23V242H179.942V224.42H185.216V232.12L190.49 224.42H196.643L190.244 233.21L196.819 242ZM213.446 239.82C211.641 241.602 209.437 242.492 206.836 242.492C204.234 242.492 202.03 241.602 200.225 239.82C198.421 238.015 197.518 235.812 197.518 233.21C197.518 230.608 198.421 228.417 200.225 226.635C202.03 224.83 204.234 223.928 206.836 223.928C209.437 223.928 211.641 224.83 213.446 226.635C215.251 228.417 216.153 230.608 216.153 233.21C216.153 235.812 215.251 238.015 213.446 239.82ZM203.952 236.199C204.726 236.972 205.687 237.359 206.836 237.359C207.984 237.359 208.945 236.972 209.719 236.199C210.492 235.425 210.879 234.429 210.879 233.21C210.879 231.991 210.492 230.995 209.719 230.221C208.945 229.448 207.984 229.061 206.836 229.061C205.687 229.061 204.726 229.448 203.952 230.221C203.179 230.995 202.792 231.991 202.792 233.21C202.792 234.429 203.179 235.425 203.952 236.199ZM222.828 222.346V217.775H233.376V222.346H222.828ZM232.497 224.42H236.364V242H231.231V233.21L223.707 242H219.839V224.42H224.973V233.21L232.497 224.42ZM258.87 242.492C256.197 242.492 253.971 241.602 252.189 239.82C250.431 238.039 249.552 235.835 249.552 233.21C249.552 230.585 250.431 228.381 252.189 226.6C253.971 224.818 256.197 223.928 258.87 223.928C260.557 223.928 262.104 224.338 263.511 225.158C264.941 225.979 266.042 227.069 266.816 228.428L262.21 231.1C261.577 229.788 260.44 229.131 258.799 229.131C257.651 229.131 256.701 229.518 255.951 230.292C255.201 231.042 254.826 232.015 254.826 233.21C254.826 234.405 255.201 235.39 255.951 236.163C256.701 236.914 257.651 237.289 258.799 237.289C260.464 237.289 261.6 236.632 262.21 235.32L266.816 237.957C266.042 239.34 264.952 240.441 263.546 241.262C262.14 242.082 260.581 242.492 258.87 242.492ZM283.881 224.42V229.483H278.642V242H273.368V229.483H268.059V224.42H283.881ZM297.373 223.928C299.694 223.928 301.674 224.83 303.315 226.635C304.956 228.417 305.776 230.608 305.776 233.21C305.776 235.812 304.956 238.015 303.315 239.82C301.674 241.602 299.694 242.492 297.373 242.492C295.123 242.492 293.377 241.777 292.134 240.347V249.032H286.86V224.42H292.134V226.073C293.377 224.643 295.123 223.928 297.373 223.928ZM293.295 236.339C294.092 237.113 295.099 237.5 296.318 237.5C297.537 237.5 298.533 237.113 299.307 236.339C300.104 235.566 300.502 234.523 300.502 233.21C300.502 231.897 300.104 230.854 299.307 230.081C298.533 229.307 297.537 228.92 296.318 228.92C295.099 228.92 294.092 229.307 293.295 230.081C292.521 230.854 292.134 231.897 292.134 233.21C292.134 234.523 292.521 235.566 293.295 236.339ZM322.233 224.42H327.507V242H322.233V240.347C320.991 241.777 319.244 242.492 316.994 242.492C314.673 242.492 312.693 241.602 311.052 239.82C309.411 238.015 308.591 235.812 308.591 233.21C308.591 230.608 309.411 228.417 311.052 226.635C312.693 224.83 314.673 223.928 316.994 223.928C319.244 223.928 320.991 224.643 322.233 226.073V224.42ZM315.025 236.339C315.799 237.113 316.807 237.5 318.049 237.5C319.291 237.5 320.299 237.113 321.073 236.339C321.846 235.566 322.233 234.523 322.233 233.21C322.233 231.897 321.846 230.854 321.073 230.081C320.299 229.307 319.291 228.92 318.049 228.92C316.807 228.92 315.799 229.307 315.025 230.081C314.252 230.854 313.865 231.897 313.865 233.21C313.865 234.523 314.252 235.566 315.025 236.339ZM343.331 224.42H348.605V242H343.331V235.671H337.353V242H332.079V224.42H337.353V230.749H343.331V224.42ZM365.836 224.42H369.703V242H364.57V233.21L357.046 242H353.178V224.42H358.311V233.21L365.836 224.42ZM390.099 237.078H393.087V246.711H387.954V242H374.277V224.42H379.551V237.078H384.825V224.42H390.099V237.078ZM404.667 229.694C406.777 229.694 408.453 230.257 409.695 231.382C410.938 232.507 411.559 233.995 411.559 235.847C411.559 237.699 410.938 239.187 409.695 240.312C408.453 241.437 406.777 242 404.667 242H396.44V224.42H401.714V229.694H404.667ZM413.317 224.42H418.591V242H413.317V224.42ZM404.703 237.429C405.218 237.429 405.628 237.289 405.933 237.007C406.261 236.703 406.425 236.316 406.425 235.847C406.425 235.378 406.261 235.003 405.933 234.722C405.628 234.417 405.218 234.265 404.703 234.265H401.714V237.429H404.703ZM443.914 224.42H449.188V242H443.914V235.671H437.937V242H432.663V224.42H437.937V230.749H443.914V224.42ZM458.473 235.32C459.083 236.96 460.489 237.781 462.692 237.781C464.122 237.781 465.247 237.335 466.068 236.445L470.287 238.871C468.552 241.285 465.997 242.492 462.622 242.492C459.669 242.492 457.301 241.613 455.52 239.855C453.762 238.097 452.883 235.882 452.883 233.21C452.883 230.561 453.75 228.358 455.485 226.6C457.243 224.818 459.493 223.928 462.235 223.928C464.79 223.928 466.912 224.818 468.599 226.6C470.31 228.358 471.166 230.561 471.166 233.21C471.166 233.96 471.096 234.663 470.955 235.32H458.473ZM458.368 231.382H465.927C465.411 229.53 464.169 228.604 462.2 228.604C460.161 228.604 458.883 229.53 458.368 231.382ZM492.792 242.492C490.12 242.492 487.893 241.602 486.112 239.82C484.354 238.039 483.475 235.835 483.475 233.21C483.475 230.585 484.354 228.381 486.112 226.6C487.893 224.818 490.12 223.928 492.792 223.928C494.48 223.928 496.027 224.338 497.433 225.158C498.863 225.979 499.965 227.069 500.738 228.428L496.132 231.1C495.499 229.788 494.363 229.131 492.722 229.131C491.573 229.131 490.624 229.518 489.874 230.292C489.124 231.042 488.749 232.015 488.749 233.21C488.749 234.405 489.124 235.39 489.874 236.163C490.624 236.914 491.573 237.289 492.722 237.289C494.386 237.289 495.523 236.632 496.132 235.32L500.738 237.957C499.965 239.34 498.875 240.441 497.468 241.262C496.062 242.082 494.503 242.492 492.792 242.492ZM514.124 224.42H519.75L513.738 241.473C511.862 246.77 508.522 249.29 503.717 249.032V244.11C504.912 244.11 505.827 243.934 506.459 243.582C507.092 243.231 507.608 242.598 508.007 241.684L501.115 224.42H506.741L510.819 235.214L514.124 224.42ZM547.36 237.078H549.646V246.711H544.512V242H522.397V224.42H527.671V237.078H532.241V224.42H537.515V237.078H542.086V224.42H547.36V237.078ZM556.997 235.32C557.606 236.96 559.013 237.781 561.216 237.781C562.646 237.781 563.771 237.335 564.591 236.445L568.811 238.871C567.076 241.285 564.521 242.492 561.146 242.492C558.192 242.492 555.825 241.613 554.043 239.855C552.285 238.097 551.406 235.882 551.406 233.21C551.406 230.561 552.274 228.358 554.008 226.6C555.766 224.818 558.016 223.928 560.759 223.928C563.314 223.928 565.435 224.818 567.123 226.6C568.834 228.358 569.69 230.561 569.69 233.21C569.69 233.96 569.619 234.663 569.479 235.32H556.997ZM556.891 231.382H564.451C563.935 229.53 562.693 228.604 560.724 228.604C558.684 228.604 557.407 229.53 556.891 231.382ZM581.651 242.492C578.979 242.492 576.752 241.602 574.97 239.82C573.212 238.039 572.333 235.835 572.333 233.21C572.333 230.585 573.212 228.381 574.97 226.6C576.752 224.818 578.979 223.928 581.651 223.928C583.338 223.928 584.885 224.338 586.292 225.158C587.722 225.979 588.823 227.069 589.597 228.428L584.991 231.1C584.358 229.788 583.221 229.131 581.58 229.131C580.432 229.131 579.483 229.518 578.732 230.292C577.982 231.042 577.607 232.015 577.607 233.21C577.607 234.405 577.982 235.39 578.732 236.163C579.483 236.914 580.432 237.289 581.58 237.289C583.245 237.289 584.382 236.632 584.991 235.32L589.597 237.957C588.823 239.34 587.733 240.441 586.327 241.262C584.921 242.082 583.362 242.492 581.651 242.492ZM606.662 224.42V229.483H601.424V242H596.15V229.483H590.84V224.42H606.662ZM622.756 232.999C624.327 233.843 625.112 235.167 625.112 236.972C625.112 238.472 624.584 239.691 623.53 240.629C622.498 241.543 621.033 242 619.135 242H609.641V224.42H618.431C620.33 224.42 621.795 224.889 622.826 225.826C623.881 226.741 624.409 227.948 624.409 229.448C624.409 230.995 623.858 232.179 622.756 232.999ZM617.869 228.639H614.564V231.1H617.869C618.9 231.1 619.416 230.702 619.416 229.905C619.416 229.061 618.9 228.639 617.869 228.639ZM618.431 237.64C619.463 237.64 619.978 237.207 619.978 236.339C619.978 235.519 619.463 235.109 618.431 235.109H614.564V237.64H618.431ZM638.828 224.42H644.454L638.442 241.473C636.566 246.77 633.226 249.29 628.421 249.032V244.11C629.616 244.11 630.531 243.934 631.163 243.582C631.796 243.231 632.312 242.598 632.711 241.684L625.819 224.42H631.445L635.523 235.214L638.828 224.42ZM651.125 235.32C651.735 236.96 653.141 237.781 655.344 237.781C656.774 237.781 657.899 237.335 658.72 236.445L662.939 238.871C661.204 241.285 658.65 242.492 655.274 242.492C652.321 242.492 649.953 241.613 648.172 239.855C646.414 238.097 645.535 235.882 645.535 233.21C645.535 230.561 646.402 228.358 648.137 226.6C649.895 224.818 652.145 223.928 654.887 223.928C657.442 223.928 659.564 224.818 661.251 226.6C662.962 228.358 663.818 230.561 663.818 233.21C663.818 233.96 663.748 234.663 663.607 235.32H651.125ZM651.02 231.382H658.579C658.064 229.53 656.821 228.604 654.852 228.604C652.813 228.604 651.535 229.53 651.02 231.382ZM681.066 224.42V229.483H675.827V242H670.553V229.483H665.244V224.42H681.066Z" fill="#4A46FF"/>
</svg>
