<svg width="232" height="209" viewBox="0 0 232 209" fill="none" xmlns="http://www.w3.org/2000/svg">
<path d="M241.335 174.429H49.7714L93.0035 122.064C103.588 109.243 121.561 105.343 136.516 112.606C155.647 121.898 178.392 110.567 182.497 89.6988L189.989 51.6176C192.873 36.9557 209.829 30.0426 222.143 38.5082L311.917 100.228L320.291 174.429H241.335Z" fill="#C9C8FF"/>
<path d="M49.7714 0.689941C49.7714 0.689941 49.7714 106.58 49.7714 174.429M49.7714 208.815C49.7714 208.815 49.7714 187.857 49.7714 174.429M0 174.429C0 174.429 30.3344 174.429 49.7714 174.429M241.335 174.429C241.335 174.429 124.582 174.429 49.7714 174.429M49.7714 174.429C62.9394 158.479 80.1711 137.607 93.0035 122.064C103.588 109.243 121.561 105.343 136.516 112.606V112.606C155.647 121.898 178.392 110.567 182.497 89.6988L189.989 51.6176C192.873 36.9557 209.829 30.0426 222.143 38.5082L311.917 100.228L320.291 174.429H49.7714Z" stroke="#4A46FF" stroke-width="1.53143"/>
<circle cx="118.722" cy="109.495" r="2.79543" fill="#4A46FF"/>
<circle cx="207.889" cy="34.8675" r="2.79543" fill="#4A46FF"/>
<circle cx="169.83" cy="109.495" r="2.79543" fill="#4A46FF"/>
</svg>
