<svg width="572" height="299" viewBox="0 0 572 299" fill="none" xmlns="http://www.w3.org/2000/svg">
<path d="M190.813 2.25781L392.737 181.149" stroke="#4A46FF" stroke-width="4" stroke-miterlimit="2.9238" stroke-dasharray="40 40"/>
<circle cx="291.328" cy="92.0238" r="75.4816" stroke="#4A46FF" stroke-width="4" stroke-miterlimit="2.9238" stroke-dasharray="40 40"/>
<path d="M21.0447 217.388V242H15.4191V222.803H8.03549V242H2.40989V217.388H21.0447ZM36.3179 223.928C38.6384 223.928 40.6191 224.83 42.2599 226.635C43.9007 228.417 44.7211 230.608 44.7211 233.21C44.7211 235.812 43.9007 238.015 42.2599 239.82C40.6191 241.602 38.6384 242.492 36.3179 242.492C34.0676 242.492 32.3213 241.777 31.079 240.347V249.032H25.805V224.42H31.079V226.073C32.3213 224.643 34.0676 223.928 36.3179 223.928ZM32.2393 236.339C33.0363 237.113 34.0442 237.5 35.2631 237.5C36.4819 237.5 37.4781 237.113 38.2517 236.339C39.0486 235.566 39.4471 234.523 39.4471 233.21C39.4471 231.897 39.0486 230.854 38.2517 230.081C37.4781 229.307 36.4819 228.92 35.2631 228.92C34.0442 228.92 33.0363 229.307 32.2393 230.081C31.4658 230.854 31.079 231.897 31.079 233.21C31.079 234.523 31.4658 235.566 32.2393 236.339ZM63.463 239.82C61.6582 241.602 59.4548 242.492 56.853 242.492C54.2511 242.492 52.0478 241.602 50.2429 239.82C48.438 238.015 47.5356 235.812 47.5356 233.21C47.5356 230.608 48.438 228.417 50.2429 226.635C52.0478 224.83 54.2511 223.928 56.853 223.928C59.4548 223.928 61.6582 224.83 63.463 226.635C65.2679 228.417 66.1704 230.608 66.1704 233.21C66.1704 235.812 65.2679 238.015 63.463 239.82ZM53.9698 236.199C54.7434 236.972 55.7044 237.359 56.853 237.359C58.0015 237.359 58.9626 236.972 59.7361 236.199C60.5096 235.425 60.8964 234.429 60.8964 233.21C60.8964 231.991 60.5096 230.995 59.7361 230.221C58.9626 229.448 58.0015 229.061 56.853 229.061C55.7044 229.061 54.7434 229.448 53.9698 230.221C53.1963 230.995 52.8096 231.991 52.8096 233.21C52.8096 234.429 53.1963 235.425 53.9698 236.199ZM82.9713 232.999C84.5418 233.843 85.3271 235.167 85.3271 236.972C85.3271 238.472 84.7997 239.691 83.7449 240.629C82.7135 241.543 81.2485 242 79.3499 242H69.8567V224.42H78.6467C80.5453 224.42 82.0103 224.889 83.0417 225.826C84.0965 226.741 84.6239 227.948 84.6239 229.448C84.6239 230.995 84.073 232.179 82.9713 232.999ZM78.0841 228.639H74.7791V231.1H78.0841C79.1155 231.1 79.6311 230.702 79.6311 229.905C79.6311 229.061 79.1155 228.639 78.0841 228.639ZM78.6467 237.64C79.678 237.64 80.1937 237.207 80.1937 236.339C80.1937 235.519 79.678 235.109 78.6467 235.109H74.7791V237.64H78.6467ZM103.703 239.82C101.899 241.602 99.6951 242.492 97.0933 242.492C94.4915 242.492 92.2881 241.602 90.4832 239.82C88.6783 238.015 87.7759 235.812 87.7759 233.21C87.7759 230.608 88.6783 228.417 90.4832 226.635C92.2881 224.83 94.4915 223.928 97.0933 223.928C99.6951 223.928 101.899 224.83 103.703 226.635C105.508 228.417 106.411 230.608 106.411 233.21C106.411 235.812 105.508 238.015 103.703 239.82ZM94.2102 236.199C94.9837 236.972 95.9447 237.359 97.0933 237.359C98.2419 237.359 99.2029 236.972 99.9764 236.199C100.75 235.425 101.137 234.429 101.137 233.21C101.137 231.991 100.75 230.995 99.9764 230.221C99.2029 229.448 98.2419 229.061 97.0933 229.061C95.9447 229.061 94.9837 229.448 94.2102 230.221C93.4367 230.995 93.0499 231.991 93.0499 233.21C93.0499 234.429 93.4367 235.425 94.2102 236.199ZM125.584 237.078H127.869V246.711H122.736V242H112.961V246.711H107.828V237.078H110.008C110.946 235.624 111.414 233.597 111.414 230.995V224.42H125.584V237.078ZM115.528 237.078H120.451V229.131H116.548V230.995C116.548 233.433 116.208 235.46 115.528 237.078ZM145.444 224.42V242H140.31V236.937H139.22L135.599 242H129.622L133.736 236.199C132.681 235.659 131.849 234.886 131.239 233.878C130.63 232.87 130.325 231.804 130.325 230.678C130.325 229.014 130.911 227.561 132.083 226.319C133.255 225.053 134.849 224.42 136.865 224.42H145.444ZM137.322 229.061C136.759 229.061 136.302 229.225 135.951 229.553C135.622 229.858 135.458 230.292 135.458 230.854C135.458 231.393 135.622 231.815 135.951 232.12C136.302 232.425 136.759 232.577 137.322 232.577H140.31V229.061H137.322ZM164.268 224.42V229.483H159.029V242H153.755V229.483H148.446V224.42H164.268ZM174.999 242.492C172.327 242.492 170.1 241.602 168.318 239.82C166.56 238.039 165.681 235.835 165.681 233.21C165.681 230.585 166.56 228.381 168.318 226.6C170.1 224.818 172.327 223.928 174.999 223.928C176.686 223.928 178.234 224.338 179.64 225.158C181.07 225.979 182.171 227.069 182.945 228.428L178.339 231.1C177.706 229.788 176.569 229.131 174.928 229.131C173.78 229.131 172.831 229.518 172.081 230.292C171.33 231.042 170.955 232.015 170.955 233.21C170.955 234.405 171.33 235.39 172.081 236.163C172.831 236.914 173.78 237.289 174.928 237.289C176.593 237.289 177.73 236.632 178.339 235.32L182.945 237.957C182.171 239.34 181.081 240.441 179.675 241.262C178.269 242.082 176.71 242.492 174.999 242.492ZM200.19 224.42V242H195.057V236.937H193.967L190.346 242H184.368L188.482 236.199C187.427 235.659 186.595 234.886 185.986 233.878C185.376 232.87 185.072 231.804 185.072 230.678C185.072 229.014 185.658 227.561 186.83 226.319C188.002 225.053 189.596 224.42 191.611 224.42H200.19ZM192.068 229.061C191.506 229.061 191.049 229.225 190.697 229.553C190.369 229.858 190.205 230.292 190.205 230.854C190.205 231.393 190.369 231.815 190.697 232.12C191.049 232.425 191.506 232.577 192.068 232.577H195.057V229.061H192.068ZM228.508 224.42V229.483H223.269V242H217.995V229.483H212.686V224.42H228.508ZM235.512 235.32C236.121 236.96 237.527 237.781 239.731 237.781C241.161 237.781 242.286 237.335 243.106 236.445L247.325 238.871C245.591 241.285 243.036 242.492 239.661 242.492C236.707 242.492 234.34 241.613 232.558 239.855C230.8 238.097 229.921 235.882 229.921 233.21C229.921 230.561 230.788 228.358 232.523 226.6C234.281 224.818 236.531 223.928 239.274 223.928C241.829 223.928 243.95 224.818 245.638 226.6C247.349 228.358 248.204 230.561 248.204 233.21C248.204 233.96 248.134 234.663 247.993 235.32H235.512ZM235.406 231.382H242.966C242.45 229.53 241.208 228.604 239.239 228.604C237.199 228.604 235.922 229.53 235.406 231.382ZM267.536 242H261.488L258.218 237.359L254.948 242H248.901L255.194 233.069L249.112 224.42H255.159L258.218 228.78L261.277 224.42H267.325L261.242 233.069L267.536 242ZM281.433 224.42H286.707V242H281.433V235.671H275.456V242H270.182V224.42H275.456V230.749H281.433V224.42ZM303.938 224.42H307.806V242H302.673V233.21L295.148 242H291.281V224.42H296.414V233.21L303.938 224.42ZM322.4 224.42H327.674V242H322.4V236.726C321.134 237.101 319.845 237.289 318.533 237.289C316.446 237.289 314.747 236.749 313.434 235.671C312.145 234.57 311.501 232.987 311.501 230.925V224.42H316.775V230.221C316.775 231.651 317.712 232.366 319.587 232.366C320.666 232.366 321.603 232.179 322.4 231.804V224.42ZM336.954 235.32C337.563 236.96 338.97 237.781 341.173 237.781C342.603 237.781 343.728 237.335 344.548 236.445L348.767 238.871C347.033 241.285 344.478 242.492 341.103 242.492C338.149 242.492 335.782 241.613 334 239.855C332.242 238.097 331.363 235.882 331.363 233.21C331.363 230.561 332.231 228.358 333.965 226.6C335.723 224.818 337.973 223.928 340.716 223.928C343.271 223.928 345.392 224.818 347.08 226.6C348.791 228.358 349.646 230.561 349.646 233.21C349.646 233.96 349.576 234.663 349.436 235.32H336.954ZM336.848 231.382H344.408C343.892 229.53 342.65 228.604 340.681 228.604C338.641 228.604 337.364 229.53 336.848 231.382ZM361.608 242.492C358.936 242.492 356.709 241.602 354.927 239.82C353.169 238.039 352.29 235.835 352.29 233.21C352.29 230.585 353.169 228.381 354.927 226.6C356.709 224.818 358.936 223.928 361.608 223.928C363.295 223.928 364.842 224.338 366.249 225.158C367.679 225.979 368.78 227.069 369.554 228.428L364.948 231.1C364.315 229.788 363.178 229.131 361.537 229.131C360.389 229.131 359.44 229.518 358.689 230.292C357.939 231.042 357.564 232.015 357.564 233.21C357.564 234.405 357.939 235.39 358.689 236.163C359.44 236.914 360.389 237.289 361.537 237.289C363.202 237.289 364.338 236.632 364.948 235.32L369.554 237.957C368.78 239.34 367.69 240.441 366.284 241.262C364.878 242.082 363.319 242.492 361.608 242.492ZM389.428 242H383.451L377.825 234.23V242H372.551V224.42H377.825V232.12L383.099 224.42H389.252L382.853 233.21L389.428 242ZM404.728 224.42H408.596V242H403.462V233.21L395.938 242H392.071V224.42H397.204V233.21L404.728 224.42ZM417.881 235.32C418.49 236.96 419.897 237.781 422.1 237.781C423.53 237.781 424.655 237.335 425.475 236.445L429.695 238.871C427.96 241.285 425.405 242.492 422.03 242.492C419.076 242.492 416.709 241.613 414.927 239.855C413.169 238.097 412.29 235.882 412.29 233.21C412.29 230.561 413.158 228.358 414.892 226.6C416.65 224.818 418.9 223.928 421.643 223.928C424.198 223.928 426.319 224.818 428.007 226.6C429.718 228.358 430.574 230.561 430.574 233.21C430.574 233.96 430.503 234.663 430.363 235.32H417.881ZM417.775 231.382H425.335C424.819 229.53 423.577 228.604 421.608 228.604C419.568 228.604 418.291 229.53 417.775 231.382ZM454.274 223.928C456.595 223.928 458.575 224.83 460.216 226.635C461.857 228.417 462.677 230.608 462.677 233.21C462.677 235.812 461.857 238.015 460.216 239.82C458.575 241.602 456.595 242.492 454.274 242.492C452.024 242.492 450.278 241.777 449.035 240.347V249.032H443.761V224.42H449.035V226.073C450.278 224.643 452.024 223.928 454.274 223.928ZM450.196 236.339C450.993 237.113 452 237.5 453.219 237.5C454.438 237.5 455.434 237.113 456.208 236.339C457.005 235.566 457.403 234.523 457.403 233.21C457.403 231.897 457.005 230.854 456.208 230.081C455.434 229.307 454.438 228.92 453.219 228.92C452 228.92 450.993 229.307 450.196 230.081C449.422 230.854 449.035 231.897 449.035 233.21C449.035 234.523 449.422 235.566 450.196 236.339ZM479.134 224.42H484.408V242H479.134V240.347C477.892 241.777 476.145 242.492 473.895 242.492C471.574 242.492 469.594 241.602 467.953 239.82C466.312 238.015 465.492 235.812 465.492 233.21C465.492 230.608 466.312 228.417 467.953 226.635C469.594 224.83 471.574 223.928 473.895 223.928C476.145 223.928 477.892 224.643 479.134 226.073V224.42ZM471.926 236.339C472.7 237.113 473.708 237.5 474.95 237.5C476.192 237.5 477.2 237.113 477.974 236.339C478.747 235.566 479.134 234.523 479.134 233.21C479.134 231.897 478.747 230.854 477.974 230.081C477.2 229.307 476.192 228.92 474.95 228.92C473.708 228.92 472.7 229.307 471.926 230.081C471.153 230.854 470.766 231.897 470.766 233.21C470.766 234.523 471.153 235.566 471.926 236.339ZM497.489 242.492C494.629 242.492 492.344 241.59 490.633 239.785C488.945 237.98 488.101 235.695 488.101 232.929C488.101 229.928 488.547 227.608 489.437 225.967C490.328 224.326 492.121 222.838 494.817 221.502C495.122 221.361 495.602 221.127 496.258 220.799C496.938 220.47 497.372 220.259 497.559 220.166C497.77 220.048 498.099 219.873 498.544 219.638C498.989 219.38 499.282 219.181 499.423 219.041C499.587 218.876 499.798 218.665 500.056 218.408C500.337 218.15 500.548 217.892 500.689 217.634C500.853 217.353 501.005 217.036 501.146 216.685L505.506 219.181C505.177 220.564 504.498 221.666 503.466 222.486C502.458 223.283 500.935 224.068 498.895 224.842C497.442 225.381 496.387 225.92 495.731 226.459C495.098 226.975 494.641 227.573 494.36 228.252C495.602 227.151 497.208 226.6 499.177 226.6C500.982 226.6 502.646 227.303 504.169 228.71C505.693 230.092 506.455 231.944 506.455 234.265C506.455 236.679 505.634 238.66 503.994 240.207C502.376 241.73 500.208 242.492 497.489 242.492ZM494.711 236.726C495.461 237.406 496.376 237.746 497.454 237.746C498.532 237.746 499.423 237.417 500.126 236.761C500.829 236.105 501.181 235.273 501.181 234.265C501.181 233.233 500.818 232.39 500.091 231.733C499.364 231.054 498.45 230.714 497.348 230.714C496.364 230.714 495.497 231.03 494.747 231.663C493.996 232.272 493.621 233.093 493.621 234.124C493.621 235.179 493.985 236.046 494.711 236.726ZM524.681 239.82C522.876 241.602 520.673 242.492 518.071 242.492C515.469 242.492 513.266 241.602 511.461 239.82C509.656 238.015 508.754 235.812 508.754 233.21C508.754 230.608 509.656 228.417 511.461 226.635C513.266 224.83 515.469 223.928 518.071 223.928C520.673 223.928 522.876 224.83 524.681 226.635C526.486 228.417 527.389 230.608 527.389 233.21C527.389 235.812 526.486 238.015 524.681 239.82ZM515.188 236.199C515.962 236.972 516.923 237.359 518.071 237.359C519.22 237.359 520.181 236.972 520.954 236.199C521.728 235.425 522.115 234.429 522.115 233.21C522.115 231.991 521.728 230.995 520.954 230.221C520.181 229.448 519.22 229.061 518.071 229.061C516.923 229.061 515.962 229.448 515.188 230.221C514.414 230.995 514.028 231.991 514.028 233.21C514.028 234.429 514.414 235.425 515.188 236.199ZM544.628 224.42V229.483H539.389V242H534.115V229.483H528.806V224.42H544.628ZM555.834 229.694C557.944 229.694 559.62 230.257 560.862 231.382C562.105 232.507 562.726 233.995 562.726 235.847C562.726 237.699 562.105 239.187 560.862 240.312C559.62 241.437 557.944 242 555.834 242H547.607V224.42H552.881V229.694H555.834ZM564.484 224.42H569.758V242H564.484V224.42ZM555.869 237.429C556.385 237.429 556.795 237.289 557.1 237.007C557.428 236.703 557.592 236.316 557.592 235.847C557.592 235.378 557.428 235.003 557.1 234.722C556.795 234.417 556.385 234.265 555.869 234.265H552.881V237.429H555.869ZM91.4052 263.388V288H85.7796V268.803H78.396V288H72.7704V263.388H91.4052ZM111.214 285.82C109.409 287.602 107.206 288.492 104.604 288.492C102.002 288.492 99.7987 287.602 97.9939 285.82C96.189 284.015 95.2865 281.812 95.2865 279.21C95.2865 276.608 96.189 274.417 97.9939 272.635C99.7987 270.83 102.002 269.928 104.604 269.928C107.206 269.928 109.409 270.83 111.214 272.635C113.019 274.417 113.921 276.608 113.921 279.21C113.921 281.812 113.019 284.015 111.214 285.82ZM101.721 282.199C102.494 282.972 103.455 283.359 104.604 283.359C105.752 283.359 106.714 282.972 107.487 282.199C108.261 281.425 108.647 280.429 108.647 279.21C108.647 277.991 108.261 276.995 107.487 276.221C106.714 275.448 105.752 275.061 104.604 275.061C103.455 275.061 102.494 275.448 101.721 276.221C100.947 276.995 100.561 277.991 100.561 279.21C100.561 280.429 100.947 281.425 101.721 282.199ZM134.133 270.42V288H128.859V275.342H122.882V288H117.608V270.42H134.133ZM149.219 269.928C151.54 269.928 153.52 270.83 155.161 272.635C156.802 274.417 157.622 276.608 157.622 279.21C157.622 281.812 156.802 284.015 155.161 285.82C153.52 287.602 151.54 288.492 149.219 288.492C146.969 288.492 145.223 287.777 143.98 286.347V295.032H138.706V270.42H143.98V272.073C145.223 270.643 146.969 269.928 149.219 269.928ZM145.141 282.339C145.938 283.113 146.946 283.5 148.164 283.5C149.383 283.5 150.38 283.113 151.153 282.339C151.95 281.566 152.348 280.523 152.348 279.21C152.348 277.897 151.95 276.854 151.153 276.081C150.38 275.307 149.383 274.92 148.164 274.92C146.946 274.92 145.938 275.307 145.141 276.081C144.367 276.854 143.98 277.897 143.98 279.21C143.98 280.523 144.367 281.566 145.141 282.339ZM176.364 285.82C174.56 287.602 172.356 288.492 169.754 288.492C167.152 288.492 164.949 287.602 163.144 285.82C161.339 284.015 160.437 281.812 160.437 279.21C160.437 276.608 161.339 274.417 163.144 272.635C164.949 270.83 167.152 269.928 169.754 269.928C172.356 269.928 174.56 270.83 176.364 272.635C178.169 274.417 179.072 276.608 179.072 279.21C179.072 281.812 178.169 284.015 176.364 285.82ZM166.871 282.199C167.645 282.972 168.606 283.359 169.754 283.359C170.903 283.359 171.864 282.972 172.637 282.199C173.411 281.425 173.798 280.429 173.798 279.21C173.798 277.991 173.411 276.995 172.637 276.221C171.864 275.448 170.903 275.061 169.754 275.061C168.606 275.061 167.645 275.448 166.871 276.221C166.098 276.995 165.711 277.991 165.711 279.21C165.711 280.429 166.098 281.425 166.871 282.199ZM191.267 288.492C188.407 288.492 186.122 287.59 184.411 285.785C182.723 283.98 181.879 281.695 181.879 278.929C181.879 275.928 182.324 273.608 183.215 271.967C184.106 270.326 185.899 268.838 188.595 267.502C188.899 267.361 189.38 267.127 190.036 266.799C190.716 266.47 191.15 266.259 191.337 266.166C191.548 266.048 191.876 265.873 192.322 265.638C192.767 265.38 193.06 265.181 193.201 265.041C193.365 264.876 193.576 264.665 193.833 264.408C194.115 264.15 194.326 263.892 194.466 263.634C194.63 263.353 194.783 263.036 194.923 262.685L199.283 265.181C198.955 266.564 198.275 267.666 197.244 268.486C196.236 269.283 194.712 270.068 192.673 270.842C191.22 271.381 190.165 271.92 189.509 272.459C188.876 272.975 188.419 273.573 188.137 274.252C189.38 273.151 190.985 272.6 192.954 272.6C194.759 272.6 196.424 273.303 197.947 274.71C199.471 276.092 200.233 277.944 200.233 280.265C200.233 282.679 199.412 284.66 197.771 286.207C196.154 287.73 193.986 288.492 191.267 288.492ZM188.489 282.726C189.239 283.406 190.153 283.746 191.232 283.746C192.31 283.746 193.201 283.417 193.904 282.761C194.607 282.105 194.959 281.273 194.959 280.265C194.959 279.233 194.595 278.39 193.869 277.733C193.142 277.054 192.228 276.714 191.126 276.714C190.142 276.714 189.274 277.03 188.524 277.663C187.774 278.272 187.399 279.093 187.399 280.124C187.399 281.179 187.762 282.046 188.489 282.726ZM213.799 270.42H219.425L213.412 287.473C211.537 292.77 208.197 295.29 203.392 295.032V290.11C204.587 290.11 205.501 289.934 206.134 289.582C206.767 289.231 207.283 288.598 207.681 287.684L200.79 270.42H206.415L210.494 281.214L213.799 270.42ZM225.06 268.346V263.775H235.608V268.346H225.06ZM234.729 270.42H238.596V288H233.463V279.21L225.939 288H222.071V270.42H227.205V279.21L234.729 270.42ZM257.41 270.42V275.483H252.171V288H246.897V275.483H241.588V270.42H257.41ZM264.414 281.32C265.023 282.96 266.429 283.781 268.633 283.781C270.063 283.781 271.188 283.335 272.008 282.445L276.227 284.871C274.493 287.285 271.938 288.492 268.562 288.492C265.609 288.492 263.242 287.613 261.46 285.855C259.702 284.097 258.823 281.882 258.823 279.21C258.823 276.561 259.69 274.358 261.425 272.6C263.183 270.818 265.433 269.928 268.176 269.928C270.731 269.928 272.852 270.818 274.54 272.6C276.251 274.358 277.106 276.561 277.106 279.21C277.106 279.96 277.036 280.663 276.895 281.32H264.414ZM264.308 277.382H271.867C271.352 275.53 270.109 274.604 268.141 274.604C266.101 274.604 264.824 275.53 264.308 277.382ZM300.983 279.069C302.694 279.984 303.549 281.366 303.549 283.218C303.549 284.742 302.905 286.008 301.616 287.016C300.35 288 298.568 288.492 296.271 288.492C292.685 288.492 290.224 287.098 288.888 284.308L293.142 281.777C293.658 283.207 294.724 283.921 296.342 283.921C297.725 283.921 298.416 283.464 298.416 282.55C298.416 281.73 297.865 281.32 296.764 281.32H294.302V276.889H296.201C297.303 276.889 297.853 276.491 297.853 275.694C297.853 274.85 297.303 274.428 296.201 274.428C294.888 274.428 293.927 275.108 293.318 276.468L289.063 274.041C290.493 271.299 292.837 269.928 296.095 269.928C298.158 269.928 299.799 270.443 301.018 271.475C302.237 272.506 302.846 273.748 302.846 275.202C302.846 276.913 302.225 278.202 300.983 279.069ZM319.658 270.42H324.932V288H319.658V286.347C318.416 287.777 316.669 288.492 314.419 288.492C312.098 288.492 310.118 287.602 308.477 285.82C306.836 284.015 306.016 281.812 306.016 279.21C306.016 276.608 306.836 274.417 308.477 272.635C310.118 270.83 312.098 269.928 314.419 269.928C316.669 269.928 318.416 270.643 319.658 272.073V270.42ZM312.45 282.339C313.224 283.113 314.232 283.5 315.474 283.5C316.716 283.5 317.724 283.113 318.498 282.339C319.271 281.566 319.658 280.523 319.658 279.21C319.658 277.897 319.271 276.854 318.498 276.081C317.724 275.307 316.716 274.92 315.474 274.92C314.232 274.92 313.224 275.307 312.45 276.081C311.677 276.854 311.29 277.897 311.29 279.21C311.29 280.523 311.677 281.566 312.45 282.339ZM332.493 268.346V263.775H343.041V268.346H332.493ZM342.162 270.42H346.03V288H340.896V279.21L333.372 288H329.504V270.42H334.638V279.21L342.162 270.42ZM364.843 270.42V275.483H359.604V288H354.33V275.483H349.021V270.42H364.843ZM380.479 270.42H384.347V288H379.214V279.21L371.689 288H367.822V270.42H372.955V279.21L380.479 270.42ZM414.939 270.42V288H409.665V275.342H403.688V288H398.414V270.42H414.939ZM434.561 285.82C432.756 287.602 430.553 288.492 427.951 288.492C425.349 288.492 423.146 287.602 421.341 285.82C419.536 284.015 418.634 281.812 418.634 279.21C418.634 276.608 419.536 274.417 421.341 272.635C423.146 270.83 425.349 269.928 427.951 269.928C430.553 269.928 432.756 270.83 434.561 272.635C436.366 274.417 437.268 276.608 437.268 279.21C437.268 281.812 436.366 284.015 434.561 285.82ZM425.068 282.199C425.841 282.972 426.802 283.359 427.951 283.359C429.099 283.359 430.061 282.972 430.834 282.199C431.608 281.425 431.994 280.429 431.994 279.21C431.994 277.991 431.608 276.995 430.834 276.221C430.061 275.448 429.099 275.061 427.951 275.061C426.802 275.061 425.841 275.448 425.068 276.221C424.294 276.995 423.908 277.991 423.908 279.21C423.908 280.429 424.294 281.425 425.068 282.199ZM450.957 279.069C452.668 279.984 453.523 281.366 453.523 283.218C453.523 284.742 452.879 286.008 451.589 287.016C450.324 288 448.542 288.492 446.245 288.492C442.659 288.492 440.198 287.098 438.862 284.308L443.116 281.777C443.632 283.207 444.698 283.921 446.315 283.921C447.698 283.921 448.39 283.464 448.39 282.55C448.39 281.73 447.839 281.32 446.737 281.32H444.276V276.889H446.175C447.276 276.889 447.827 276.491 447.827 275.694C447.827 274.85 447.276 274.428 446.175 274.428C444.862 274.428 443.901 275.108 443.292 276.468L439.037 274.041C440.467 271.299 442.811 269.928 446.069 269.928C448.132 269.928 449.773 270.443 450.992 271.475C452.211 272.506 452.82 273.748 452.82 275.202C452.82 276.913 452.199 278.202 450.957 279.069ZM481.313 288H475.477L470.695 280.37V288H465.561V280.37L460.78 288H454.943L460.78 279.21L455.295 270.42H461.131L465.561 277.944V270.42H470.695V277.944L475.125 270.42H480.962L475.477 279.21L481.313 288ZM487.589 281.32C488.198 282.96 489.605 283.781 491.808 283.781C493.238 283.781 494.363 283.335 495.183 282.445L499.403 284.871C497.668 287.285 495.113 288.492 491.738 288.492C488.784 288.492 486.417 287.613 484.635 285.855C482.877 284.097 481.998 281.882 481.998 279.21C481.998 276.561 482.866 274.358 484.6 272.6C486.358 270.818 488.609 269.928 491.351 269.928C493.906 269.928 496.027 270.818 497.715 272.6C499.426 274.358 500.282 276.561 500.282 279.21C500.282 279.96 500.211 280.663 500.071 281.32H487.589ZM487.483 277.382H495.043C494.527 275.53 493.285 274.604 491.316 274.604C489.277 274.604 487.999 275.53 487.483 277.382Z" fill="#4A46FF"/>
</svg>
