<svg width="1440" height="803" viewBox="0 0 1440 803" fill="none" xmlns="http://www.w3.org/2000/svg">
<g clip-path="url(#clip0)">
<rect width="1440" height="804" transform="translate(0 -0.573486)" fill="white"/>
<g filter="url(#filter0_bii)">
<path opacity="0.56" d="M253.998 51.3535H398.43" stroke="#4A46FF" stroke-width="11"/>
<path d="M274.899 39.1465H268.599V42.8815H274.719V45.8515H268.599V51.9265H265.494V36.1765H274.899V39.1465ZM278.916 39.3265C278.436 39.3265 278.016 39.154 277.656 38.809C277.311 38.449 277.139 38.029 277.139 37.549C277.139 37.069 277.311 36.649 277.656 36.289C278.016 35.929 278.436 35.749 278.916 35.749C279.411 35.749 279.831 35.929 280.176 36.289C280.536 36.649 280.716 37.069 280.716 37.549C280.716 38.029 280.536 38.449 280.176 38.809C279.831 39.154 279.411 39.3265 278.916 39.3265ZM277.476 51.9265V40.6765H280.379V51.9265H277.476ZM289.92 43.4665H287.378V48.1465C287.378 48.5365 287.475 48.8215 287.67 49.0015C287.865 49.1815 288.15 49.2865 288.525 49.3165C288.9 49.3315 289.365 49.324 289.92 49.294V51.9265C287.925 52.1515 286.515 51.964 285.69 51.364C284.88 50.764 284.475 49.6915 284.475 48.1465V43.4665H282.518V40.6765H284.475V38.404L287.378 37.5265V40.6765H289.92V43.4665ZM301.368 51.9265L298.195 46.459H295.833V51.9265H292.728V36.1765H299.028C300.483 36.1765 301.72 36.6865 302.74 37.7065C303.76 38.7265 304.27 39.9565 304.27 41.3965C304.27 42.3715 303.993 43.279 303.438 44.119C302.883 44.944 302.148 45.5665 301.233 45.9865L304.72 51.9265H301.368ZM295.833 39.079V43.7365H299.028C299.613 43.7365 300.115 43.5115 300.535 43.0615C300.955 42.5965 301.165 42.0415 301.165 41.3965C301.165 40.7515 300.955 40.204 300.535 39.754C300.115 39.304 299.613 39.079 299.028 39.079H295.833ZM308.745 47.494C309.135 48.904 310.192 49.609 311.917 49.609C313.027 49.609 313.867 49.234 314.437 48.484L316.777 49.834C315.667 51.439 314.032 52.2415 311.872 52.2415C310.012 52.2415 308.52 51.679 307.395 50.554C306.27 49.429 305.707 48.0115 305.707 46.3015C305.707 44.6065 306.262 43.1965 307.372 42.0715C308.482 40.9315 309.907 40.3615 311.647 40.3615C313.297 40.3615 314.655 40.9315 315.72 42.0715C316.8 43.2115 317.34 44.6215 317.34 46.3015C317.34 46.6765 317.302 47.074 317.227 47.494H308.745ZM308.7 45.244H314.437C314.272 44.479 313.927 43.909 313.402 43.534C312.892 43.159 312.307 42.9715 311.647 42.9715C310.867 42.9715 310.222 43.174 309.712 43.579C309.202 43.969 308.865 44.524 308.7 45.244ZM326.363 40.3615C327.878 40.3615 329.168 40.939 330.233 42.094C331.313 43.234 331.853 44.6365 331.853 46.3015C331.853 47.9665 331.313 49.3765 330.233 50.5315C329.168 51.6715 327.878 52.2415 326.363 52.2415C324.788 52.2415 323.573 51.694 322.718 50.599V56.4265H319.816V40.6765H322.718V42.004C323.573 40.909 324.788 40.3615 326.363 40.3615ZM323.596 48.5965C324.181 49.1815 324.923 49.474 325.823 49.474C326.723 49.474 327.466 49.1815 328.051 48.5965C328.651 47.9965 328.951 47.2315 328.951 46.3015C328.951 45.3715 328.651 44.614 328.051 44.029C327.466 43.429 326.723 43.129 325.823 43.129C324.923 43.129 324.181 43.429 323.596 44.029C323.011 44.614 322.718 45.3715 322.718 46.3015C322.718 47.2315 323.011 47.9965 323.596 48.5965ZM336.803 47.494C337.193 48.904 338.25 49.609 339.975 49.609C341.085 49.609 341.925 49.234 342.495 48.484L344.835 49.834C343.725 51.439 342.09 52.2415 339.93 52.2415C338.07 52.2415 336.578 51.679 335.453 50.554C334.328 49.429 333.765 48.0115 333.765 46.3015C333.765 44.6065 334.32 43.1965 335.43 42.0715C336.54 40.9315 337.965 40.3615 339.705 40.3615C341.355 40.3615 342.713 40.9315 343.778 42.0715C344.858 43.2115 345.398 44.6215 345.398 46.3015C345.398 46.6765 345.36 47.074 345.285 47.494H336.803ZM336.758 45.244H342.495C342.33 44.479 341.985 43.909 341.46 43.534C340.95 43.159 340.365 42.9715 339.705 42.9715C338.925 42.9715 338.28 43.174 337.77 43.579C337.26 43.969 336.923 44.524 336.758 45.244ZM350.776 42.6115C351.046 41.8915 351.489 41.3515 352.104 40.9915C352.734 40.6315 353.431 40.4515 354.196 40.4515V43.6915C353.311 43.5865 352.516 43.7665 351.811 44.2315C351.121 44.6965 350.776 45.469 350.776 46.549V51.9265H347.874V40.6765H350.776V42.6115ZM363.087 43.4665H360.544V48.1465C360.544 48.5365 360.642 48.8215 360.837 49.0015C361.032 49.1815 361.317 49.2865 361.692 49.3165C362.067 49.3315 362.532 49.324 363.087 49.294V51.9265C361.092 52.1515 359.682 51.964 358.857 51.364C358.047 50.764 357.642 49.6915 357.642 48.1465V43.4665H355.684V40.6765H357.642V38.404L360.544 37.5265V40.6765H363.087V43.4665ZM374.817 50.5315C373.662 51.6715 372.252 52.2415 370.587 52.2415C368.922 52.2415 367.512 51.6715 366.357 50.5315C365.217 49.3765 364.647 47.9665 364.647 46.3015C364.647 44.6365 365.217 43.234 366.357 42.094C367.512 40.939 368.922 40.3615 370.587 40.3615C372.252 40.3615 373.662 40.939 374.817 42.094C375.972 43.234 376.549 44.6365 376.549 46.3015C376.549 47.9665 375.972 49.3765 374.817 50.5315ZM368.404 48.529C368.989 49.114 369.717 49.4065 370.587 49.4065C371.457 49.4065 372.184 49.114 372.769 48.529C373.354 47.944 373.647 47.2015 373.647 46.3015C373.647 45.4015 373.354 44.659 372.769 44.074C372.184 43.489 371.457 43.1965 370.587 43.1965C369.717 43.1965 368.989 43.489 368.404 44.074C367.834 44.659 367.549 45.4015 367.549 46.3015C367.549 47.2015 367.834 47.944 368.404 48.529ZM381.943 42.6115C382.213 41.8915 382.656 41.3515 383.271 40.9915C383.901 40.6315 384.598 40.4515 385.363 40.4515V43.6915C384.478 43.5865 383.683 43.7665 382.978 44.2315C382.288 44.6965 381.943 45.469 381.943 46.549V51.9265H379.041V40.6765H381.943V42.6115ZM395.088 40.6765H398.193L394.098 51.9265C393.513 53.5465 392.733 54.7165 391.758 55.4365C390.798 56.1715 389.598 56.5015 388.158 56.4265V53.7265C388.938 53.7415 389.553 53.5765 390.003 53.2315C390.468 52.8865 390.835 52.3315 391.105 51.5665L386.493 40.6765H389.665L392.59 48.2365L395.088 40.6765Z" fill="#020827"/>
<path d="M550.303 38.3265H552.769V50.9265H550.303V45.7065H545.623V50.9265H543.139V38.3265H545.623V43.3305H550.303V38.3265ZM562.201 41.9265H564.523V50.9265H562.201V49.8645C561.505 50.7405 560.527 51.1785 559.267 51.1785C558.067 51.1785 557.035 50.7225 556.171 49.8105C555.319 48.8865 554.893 47.7585 554.893 46.4265C554.893 45.0945 555.319 43.9725 556.171 43.0605C557.035 42.1365 558.067 41.6745 559.267 41.6745C560.527 41.6745 561.505 42.1125 562.201 42.9885V41.9265ZM557.917 48.2625C558.385 48.7305 558.979 48.9645 559.699 48.9645C560.419 48.9645 561.013 48.7305 561.481 48.2625C561.961 47.7825 562.201 47.1705 562.201 46.4265C562.201 45.6825 561.961 45.0765 561.481 44.6085C561.013 44.1285 560.419 43.8885 559.699 43.8885C558.979 43.8885 558.385 44.1285 557.917 44.6085C557.449 45.0765 557.215 45.6825 557.215 46.4265C557.215 47.1705 557.449 47.7825 557.917 48.2625ZM575.215 41.9265V50.9265H572.893V44.1045H569.311V50.9265H566.989V41.9265H575.215ZM582.941 41.6745C584.153 41.6745 585.185 42.1365 586.037 43.0605C586.901 43.9725 587.333 45.0945 587.333 46.4265C587.333 47.7585 586.901 48.8865 586.037 49.8105C585.185 50.7225 584.153 51.1785 582.941 51.1785C581.681 51.1785 580.709 50.7405 580.025 49.8645V54.5265H577.703V41.9265H580.025V42.9885C580.709 42.1125 581.681 41.6745 582.941 41.6745ZM580.727 48.2625C581.195 48.7305 581.789 48.9645 582.509 48.9645C583.229 48.9645 583.823 48.7305 584.291 48.2625C584.771 47.7825 585.011 47.1705 585.011 46.4265C585.011 45.6825 584.771 45.0765 584.291 44.6085C583.823 44.1285 583.229 43.8885 582.509 43.8885C581.789 43.8885 581.195 44.1285 580.727 44.6085C580.259 45.0765 580.025 45.6825 580.025 46.4265C580.025 47.1705 580.259 47.7825 580.727 48.2625ZM596.17 41.9265H598.492V50.9265H596.17V49.8645C595.474 50.7405 594.496 51.1785 593.236 51.1785C592.036 51.1785 591.004 50.7225 590.14 49.8105C589.288 48.8865 588.862 47.7585 588.862 46.4265C588.862 45.0945 589.288 43.9725 590.14 43.0605C591.004 42.1365 592.036 41.6745 593.236 41.6745C594.496 41.6745 595.474 42.1125 596.17 42.9885V41.9265ZM591.886 48.2625C592.354 48.7305 592.948 48.9645 593.668 48.9645C594.388 48.9645 594.982 48.7305 595.45 48.2625C595.93 47.7825 596.17 47.1705 596.17 46.4265C596.17 45.6825 595.93 45.0765 595.45 44.6085C594.982 44.1285 594.388 43.8885 593.668 43.8885C592.948 43.8885 592.354 44.1285 591.886 44.6085C591.418 45.0765 591.184 45.6825 591.184 46.4265C591.184 47.1705 591.418 47.7825 591.886 48.2625ZM607.438 46.3185C608.278 46.7265 608.698 47.4105 608.698 48.3705C608.698 49.1265 608.434 49.7445 607.906 50.2245C607.39 50.6925 606.652 50.9265 605.692 50.9265H600.958V41.9265H605.332C606.28 41.9265 607.012 42.1605 607.528 42.6285C608.056 43.0965 608.32 43.7085 608.32 44.4645C608.32 45.2565 608.026 45.8745 607.438 46.3185ZM605.116 43.8345H603.136V45.4545H605.116C605.776 45.4545 606.106 45.1845 606.106 44.6445C606.106 44.1045 605.776 43.8345 605.116 43.8345ZM605.422 48.9645C606.094 48.9645 606.43 48.6765 606.43 48.1005C606.43 47.8485 606.34 47.6505 606.16 47.5065C605.98 47.3625 605.734 47.2905 605.422 47.2905H603.136V48.9645H605.422ZM618.145 41.9265V50.9265H615.823V44.1585H613.339V47.1645C613.339 49.9485 612.073 51.2025 609.541 50.9265V48.7485C610.021 48.8685 610.387 48.7905 610.639 48.5145C610.891 48.2265 611.017 47.7345 611.017 47.0385V41.9265H618.145ZM622.571 47.3805C622.883 48.5085 623.729 49.0725 625.109 49.0725C625.997 49.0725 626.669 48.7725 627.125 48.1725L628.997 49.2525C628.109 50.5365 626.801 51.1785 625.073 51.1785C623.585 51.1785 622.391 50.7285 621.491 49.8285C620.591 48.9285 620.141 47.7945 620.141 46.4265C620.141 45.0705 620.585 43.9425 621.473 43.0425C622.361 42.1305 623.501 41.6745 624.893 41.6745C626.213 41.6745 627.299 42.1305 628.151 43.0425C629.015 43.9545 629.447 45.0825 629.447 46.4265C629.447 46.7265 629.417 47.0445 629.357 47.3805H622.571ZM622.535 45.5805H627.125C626.993 44.9685 626.717 44.5125 626.297 44.2125C625.889 43.9125 625.421 43.7625 624.893 43.7625C624.269 43.7625 623.753 43.9245 623.345 44.2485C622.937 44.5605 622.667 45.0045 622.535 45.5805ZM637.332 41.9265H639.654V50.9265H637.332V47.5065H633.75V50.9265H631.428V41.9265H633.75V45.3285H637.332V41.9265ZM648.64 41.9265H650.368V50.9265H648.1V45.8145L643.87 50.9265H642.142V41.9265H644.41V47.0385L648.64 41.9265ZM660.073 41.9265V50.9265H657.805V48.1185H656.995L654.925 50.9265H652.243L654.493 47.8485C653.917 47.6085 653.455 47.2305 653.107 46.7145C652.771 46.1865 652.603 45.6225 652.603 45.0225C652.603 44.1825 652.903 43.4565 653.503 42.8445C654.103 42.2325 654.889 41.9265 655.861 41.9265H660.073ZM656.041 43.9965C655.705 43.9965 655.423 44.0985 655.195 44.3025C654.979 44.4945 654.871 44.7585 654.871 45.0945C654.871 45.4185 654.979 45.6765 655.195 45.8685C655.423 46.0605 655.705 46.1565 656.041 46.1565H657.805V43.9965H656.041Z" fill="#818393"/>
<path d="M697.837 38.3265C699.049 38.3265 700.069 38.7345 700.897 39.5505C701.725 40.3665 702.139 41.3685 702.139 42.5565C702.139 43.7445 701.725 44.7465 700.897 45.5625C700.069 46.3785 699.049 46.7865 697.837 46.7865H695.623V50.9265H693.139V38.3265H697.837ZM697.837 44.4645C698.365 44.4645 698.803 44.2845 699.151 43.9245C699.499 43.5525 699.673 43.0965 699.673 42.5565C699.673 42.0045 699.499 41.5485 699.151 41.1885C698.803 40.8285 698.365 40.6485 697.837 40.6485H695.623V44.4645H697.837ZM705.372 47.3805C705.684 48.5085 706.53 49.0725 707.91 49.0725C708.798 49.0725 709.47 48.7725 709.926 48.1725L711.798 49.2525C710.91 50.5365 709.602 51.1785 707.874 51.1785C706.386 51.1785 705.192 50.7285 704.292 49.8285C703.392 48.9285 702.942 47.7945 702.942 46.4265C702.942 45.0705 703.386 43.9425 704.274 43.0425C705.162 42.1305 706.302 41.6745 707.694 41.6745C709.014 41.6745 710.1 42.1305 710.952 43.0425C711.816 43.9545 712.248 45.0825 712.248 46.4265C712.248 46.7265 712.218 47.0445 712.158 47.3805H705.372ZM705.336 45.5805H709.926C709.794 44.9685 709.518 44.5125 709.098 44.2125C708.69 43.9125 708.222 43.7625 707.694 43.7625C707.07 43.7625 706.554 43.9245 706.146 44.2485C705.738 44.5605 705.468 45.0045 705.336 45.5805ZM720.385 41.9265V44.1585H716.551V50.9265H714.229V41.9265H720.385ZM729.149 41.9265V50.9265H726.827V44.1585H724.343V47.1645C724.343 49.9485 723.077 51.2025 720.545 50.9265V48.7485C721.025 48.8685 721.391 48.7905 721.643 48.5145C721.895 48.2265 722.021 47.7345 722.021 47.0385V41.9265H729.149ZM738.453 41.9265H740.775V50.9265H738.453V49.8645C737.757 50.7405 736.779 51.1785 735.519 51.1785C734.319 51.1785 733.287 50.7225 732.423 49.8105C731.571 48.8865 731.145 47.7585 731.145 46.4265C731.145 45.0945 731.571 43.9725 732.423 43.0605C733.287 42.1365 734.319 41.6745 735.519 41.6745C736.779 41.6745 737.757 42.1125 738.453 42.9885V41.9265ZM734.169 48.2625C734.637 48.7305 735.231 48.9645 735.951 48.9645C736.671 48.9645 737.265 48.7305 737.733 48.2625C738.213 47.7825 738.453 47.1705 738.453 46.4265C738.453 45.6825 738.213 45.0765 737.733 44.6085C737.265 44.1285 736.671 43.8885 735.951 43.8885C735.231 43.8885 734.637 44.1285 734.169 44.6085C733.701 45.0765 733.467 45.6825 733.467 46.4265C733.467 47.1705 733.701 47.7825 734.169 48.2625ZM752.601 41.9265V50.9265H750.351V45.6705L748.065 49.2705H747.777L745.473 45.6345V50.9265H743.241V41.9265H745.527L747.921 45.7065L750.315 41.9265H752.601ZM757.041 47.3805C757.353 48.5085 758.199 49.0725 759.579 49.0725C760.467 49.0725 761.139 48.7725 761.595 48.1725L763.467 49.2525C762.579 50.5365 761.271 51.1785 759.543 51.1785C758.055 51.1785 756.861 50.7285 755.961 49.8285C755.061 48.9285 754.611 47.7945 754.611 46.4265C754.611 45.0705 755.055 43.9425 755.943 43.0425C756.831 42.1305 757.971 41.6745 759.363 41.6745C760.683 41.6745 761.769 42.1305 762.621 43.0425C763.485 43.9545 763.917 45.0825 763.917 46.4265C763.917 46.7265 763.887 47.0445 763.827 47.3805H757.041ZM757.005 45.5805H761.595C761.463 44.9685 761.187 44.5125 760.767 44.2125C760.359 43.9125 759.891 43.7625 759.363 43.7625C758.739 43.7625 758.223 43.9245 757.815 44.2485C757.407 44.5605 757.137 45.0045 757.005 45.5805ZM771.802 41.9265H774.124V50.9265H771.802V47.5065H768.22V50.9265H765.898V41.9265H768.22V45.3285H771.802V41.9265ZM783.704 41.9265V44.1585H780.896V50.9265H778.574V44.1585H775.73V41.9265H783.704Z" fill="#818393"/>
<path d="M821.115 51.1785C819.219 51.1785 817.653 50.5485 816.417 49.2885C815.181 48.0285 814.563 46.4745 814.563 44.6265C814.563 42.7665 815.181 41.2125 816.417 39.9645C817.653 38.7045 819.219 38.0745 821.115 38.0745C822.255 38.0745 823.305 38.3445 824.265 38.8845C825.237 39.4125 825.993 40.1325 826.533 41.0445L824.391 42.2865C824.079 41.7225 823.635 41.2845 823.059 40.9725C822.483 40.6485 821.835 40.4865 821.115 40.4865C819.891 40.4865 818.901 40.8705 818.145 41.6385C817.401 42.4065 817.029 43.4025 817.029 44.6265C817.029 45.8385 817.401 46.8285 818.145 47.5965C818.901 48.3645 819.891 48.7485 821.115 48.7485C821.835 48.7485 822.483 48.5925 823.059 48.2805C823.647 47.9565 824.091 47.5185 824.391 46.9665L826.533 48.2085C825.993 49.1205 825.243 49.8465 824.283 50.3865C823.323 50.9145 822.267 51.1785 821.115 51.1785ZM835.543 41.9265V44.1585H832.735V50.9265H830.413V44.1585H827.569V41.9265H835.543ZM843.632 41.9265H845.954V50.9265H843.632V49.8645C842.936 50.7405 841.958 51.1785 840.698 51.1785C839.498 51.1785 838.466 50.7225 837.602 49.8105C836.75 48.8865 836.324 47.7585 836.324 46.4265C836.324 45.0945 836.75 43.9725 837.602 43.0605C838.466 42.1365 839.498 41.6745 840.698 41.6745C841.958 41.6745 842.936 42.1125 843.632 42.9885V41.9265ZM839.348 48.2625C839.816 48.7305 840.41 48.9645 841.13 48.9645C841.85 48.9645 842.444 48.7305 842.912 48.2625C843.392 47.7825 843.632 47.1705 843.632 46.4265C843.632 45.6825 843.392 45.0765 842.912 44.6085C842.444 44.1285 841.85 43.8885 841.13 43.8885C840.41 43.8885 839.816 44.1285 839.348 44.6085C838.88 45.0765 838.646 45.6825 838.646 46.4265C838.646 47.1705 838.88 47.7825 839.348 48.2625ZM855.511 41.9265V44.1585H852.703V50.9265H850.381V44.1585H847.537V41.9265H855.511ZM861.179 44.8065C862.199 44.8065 863.021 45.0885 863.645 45.6525C864.269 46.2045 864.581 46.9425 864.581 47.8665C864.581 48.7905 864.269 49.5345 863.645 50.0985C863.021 50.6505 862.199 50.9265 861.179 50.9265H857.111V41.9265H859.433V44.8065H861.179ZM861.197 48.8745C861.521 48.8745 861.785 48.7845 861.989 48.6045C862.205 48.4125 862.313 48.1665 862.313 47.8665C862.313 47.5665 862.205 47.3205 861.989 47.1285C861.785 46.9365 861.521 46.8405 861.197 46.8405H859.433V48.8745H861.197ZM872.899 41.9265H874.627V50.9265H872.359V45.8145L868.129 50.9265H866.401V41.9265H868.669V47.0385L872.899 41.9265Z" fill="#818393"/>
<path d="M944.645 44.3925C945.197 44.6805 945.629 45.0765 945.941 45.5805C946.253 46.0845 946.409 46.6665 946.409 47.3265C946.409 48.3585 946.043 49.2165 945.311 49.9005C944.579 50.5845 943.685 50.9265 942.629 50.9265H937.229V38.3265H942.233C943.265 38.3265 944.135 38.6625 944.843 39.3345C945.563 39.9945 945.923 40.8225 945.923 41.8185C945.923 42.9105 945.497 43.7685 944.645 44.3925ZM942.233 40.2705H939.299V43.5825H942.233C942.689 43.5825 943.073 43.4265 943.385 43.1145C943.697 42.7905 943.853 42.3945 943.853 41.9265C943.853 41.4585 943.697 41.0685 943.385 40.7565C943.073 40.4325 942.689 40.2705 942.233 40.2705ZM942.629 48.9825C943.109 48.9825 943.511 48.8145 943.835 48.4785C944.171 48.1305 944.339 47.7105 944.339 47.2185C944.339 46.7265 944.171 46.3125 943.835 45.9765C943.511 45.6285 943.109 45.4545 942.629 45.4545H939.299V48.9825H942.629ZM952.785 51.1605C951.465 51.1605 950.343 50.7045 949.419 49.7925C948.495 48.8805 948.033 47.7585 948.033 46.4265C948.033 45.0945 948.495 43.9725 949.419 43.0605C950.343 42.1485 951.465 41.6925 952.785 41.6925C954.117 41.6925 955.239 42.1485 956.151 43.0605C957.075 43.9725 957.537 45.0945 957.537 46.4265C957.537 47.7585 957.075 48.8805 956.151 49.7925C955.239 50.7045 954.117 51.1605 952.785 51.1605ZM950.787 48.4605C951.327 49.0005 951.993 49.2705 952.785 49.2705C953.577 49.2705 954.243 49.0005 954.783 48.4605C955.323 47.9205 955.593 47.2425 955.593 46.4265C955.593 45.6105 955.323 44.9325 954.783 44.3925C954.243 43.8525 953.577 43.5825 952.785 43.5825C951.993 43.5825 951.327 43.8525 950.787 44.3925C950.247 44.9325 949.977 45.6105 949.977 46.4265C949.977 47.2425 950.247 47.9205 950.787 48.4605ZM961.131 40.6665V38.9745H966.171V40.6665H961.131ZM966.171 41.9265H967.665V50.9265H965.757V45.2025L961.149 50.9265H959.655V41.9265H961.563V47.6325L966.171 41.9265ZM977.156 41.9265V43.7985H974.222V50.9265H972.278V43.7985H969.326V41.9265H977.156ZM985.348 41.9265H986.842V50.9265H984.934V45.2025L980.326 50.9265H978.832V41.9265H980.74V47.6325L985.348 41.9265Z" fill="#4A46FF"/>
<path d="M915.969 21.9265H1007.97V19.9265H915.969V21.9265ZM1016.97 30.9265V57.9265H1018.97V30.9265H1016.97ZM1007.97 66.9265H915.969V68.9265H1007.97V66.9265ZM906.969 57.9265V30.9265H904.969V57.9265H906.969ZM915.969 66.9265C910.998 66.9265 906.969 62.8971 906.969 57.9265H904.969C904.969 64.0016 909.894 68.9265 915.969 68.9265V66.9265ZM1016.97 57.9265C1016.97 62.8971 1012.94 66.9265 1007.97 66.9265V68.9265C1014.04 68.9265 1018.97 64.0016 1018.97 57.9265H1016.97ZM1007.97 21.9265C1012.94 21.9265 1016.97 25.956 1016.97 30.9265H1018.97C1018.97 24.8514 1014.04 19.9265 1007.97 19.9265V21.9265ZM915.969 19.9265C909.894 19.9265 904.969 24.8514 904.969 30.9265H906.969C906.969 25.956 910.998 21.9265 915.969 21.9265V19.9265Z" fill="#4A46FF"/>
<path d="M1047.97 30.9265C1047.97 25.4037 1052.45 20.9265 1057.97 20.9265H1175.97C1181.49 20.9265 1185.97 25.4037 1185.97 30.9265V57.9265C1185.97 63.4494 1181.49 67.9265 1175.97 67.9265H1057.97C1052.45 67.9265 1047.97 63.4494 1047.97 57.9265V30.9265Z" fill="#4A46FF"/>
<path d="M1088.55 38.3265V50.9265H1086.07V40.7025H1081.62V50.9265H1079.14V38.3265H1088.55ZM1096.39 41.6745C1097.6 41.6745 1098.63 42.1365 1099.48 43.0605C1100.35 43.9725 1100.78 45.0945 1100.78 46.4265C1100.78 47.7585 1100.35 48.8865 1099.48 49.8105C1098.63 50.7225 1097.6 51.1785 1096.39 51.1785C1095.13 51.1785 1094.16 50.7405 1093.47 49.8645V54.5265H1091.15V41.9265H1093.47V42.9885C1094.16 42.1125 1095.13 41.6745 1096.39 41.6745ZM1094.17 48.2625C1094.64 48.7305 1095.24 48.9645 1095.96 48.9645C1096.68 48.9645 1097.27 48.7305 1097.74 48.2625C1098.22 47.7825 1098.46 47.1705 1098.46 46.4265C1098.46 45.6825 1098.22 45.0765 1097.74 44.6085C1097.27 44.1285 1096.68 43.8885 1095.96 43.8885C1095.24 43.8885 1094.64 44.1285 1094.17 44.6085C1093.71 45.0765 1093.47 45.6825 1093.47 46.4265C1093.47 47.1705 1093.71 47.7825 1094.17 48.2625ZM1110.45 49.8105C1109.52 50.7225 1108.39 51.1785 1107.06 51.1785C1105.73 51.1785 1104.6 50.7225 1103.68 49.8105C1102.77 48.8865 1102.31 47.7585 1102.31 46.4265C1102.31 45.0945 1102.77 43.9725 1103.68 43.0605C1104.6 42.1365 1105.73 41.6745 1107.06 41.6745C1108.39 41.6745 1109.52 42.1365 1110.45 43.0605C1111.37 43.9725 1111.83 45.0945 1111.83 46.4265C1111.83 47.7585 1111.37 48.8865 1110.45 49.8105ZM1105.32 48.2085C1105.78 48.6765 1106.37 48.9105 1107.06 48.9105C1107.76 48.9105 1108.34 48.6765 1108.81 48.2085C1109.28 47.7405 1109.51 47.1465 1109.51 46.4265C1109.51 45.7065 1109.28 45.1125 1108.81 44.6445C1108.34 44.1765 1107.76 43.9425 1107.06 43.9425C1106.37 43.9425 1105.78 44.1765 1105.32 44.6445C1104.86 45.1125 1104.63 45.7065 1104.63 46.4265C1104.63 47.1465 1104.86 47.7405 1105.32 48.2085ZM1115.79 47.3805C1116.1 48.5085 1116.95 49.0725 1118.33 49.0725C1119.21 49.0725 1119.89 48.7725 1120.34 48.1725L1122.21 49.2525C1121.33 50.5365 1120.02 51.1785 1118.29 51.1785C1116.8 51.1785 1115.61 50.7285 1114.71 49.8285C1113.81 48.9285 1113.36 47.7945 1113.36 46.4265C1113.36 45.0705 1113.8 43.9425 1114.69 43.0425C1115.58 42.1305 1116.72 41.6745 1118.11 41.6745C1119.43 41.6745 1120.52 42.1305 1121.37 43.0425C1122.23 43.9545 1122.66 45.0825 1122.66 46.4265C1122.66 46.7265 1122.63 47.0445 1122.57 47.3805H1115.79ZM1115.75 45.5805H1120.34C1120.21 44.9685 1119.93 44.5125 1119.51 44.2125C1119.11 43.9125 1118.64 43.7625 1118.11 43.7625C1117.49 43.7625 1116.97 43.9245 1116.56 44.2485C1116.15 44.5605 1115.88 45.0045 1115.75 45.5805ZM1132.94 50.9265H1130.24L1126.97 46.8405V50.9265H1124.64V41.9265H1126.97V45.8865L1130.06 41.9265H1132.83L1129.22 46.3725L1132.94 50.9265ZM1141.55 41.9265V44.1585H1138.75V50.9265H1136.42V44.1585H1133.58V41.9265H1141.55ZM1147.22 44.8065C1148.24 44.8065 1149.06 45.0885 1149.69 45.6525C1150.31 46.2045 1150.62 46.9425 1150.62 47.8665C1150.62 48.7905 1150.31 49.5345 1149.69 50.0985C1149.06 50.6505 1148.24 50.9265 1147.22 50.9265H1143.15V41.9265H1145.48V44.8065H1147.22ZM1151.61 41.9265H1153.94V50.9265H1151.61V41.9265ZM1147.24 48.8745C1147.56 48.8745 1147.83 48.7845 1148.03 48.6045C1148.25 48.4125 1148.36 48.1665 1148.36 47.8665C1148.36 47.5665 1148.25 47.3205 1148.03 47.1285C1147.83 46.9365 1147.56 46.8405 1147.24 46.8405H1145.48V48.8745H1147.24Z" fill="white"/>
</g>
<path d="M623.36 389.467V429.891H606V456.427H561.856V429.891H485.72V389.467L537.552 282.827H586.656L534.328 389.467H561.856V358.219H606V389.467H623.36ZM955.138 389.467V429.891H937.777V456.427H893.634V429.891H817.497V389.467L869.329 282.827H918.434L866.105 389.467H893.634V358.219H937.777V389.467H955.138Z" fill="#4A46FF"/>
<path d="M261.58 747.344C260.766 748.158 259.783 748.565 258.631 748.565C257.479 748.565 256.496 748.158 255.682 747.344C254.868 746.53 254.461 745.547 254.461 744.395C254.461 743.243 254.868 742.259 255.682 741.445C256.496 740.631 257.479 740.224 258.631 740.224C259.783 740.224 260.766 740.631 261.58 741.445C262.394 742.259 262.801 743.243 262.801 744.395C262.801 745.547 262.394 746.53 261.58 747.344ZM255.924 747.125C256.676 747.87 257.579 748.242 258.631 748.242C259.683 748.242 260.582 747.87 261.327 747.125C262.079 746.372 262.456 745.462 262.456 744.395C262.456 743.327 262.079 742.421 261.327 741.676C260.582 740.923 259.683 740.547 258.631 740.547C257.579 740.547 256.676 740.923 255.924 741.676C255.179 742.421 254.806 743.327 254.806 744.395C254.806 745.462 255.179 746.372 255.924 747.125ZM258.666 746.606C258.036 746.606 257.506 746.391 257.076 745.961C256.646 745.531 256.431 745.009 256.431 744.395C256.431 743.78 256.646 743.258 257.076 742.828C257.506 742.398 258.036 742.183 258.666 742.183C259.073 742.183 259.441 742.279 259.772 742.471C260.109 742.663 260.371 742.924 260.555 743.254L259.921 743.623C259.814 743.385 259.645 743.204 259.414 743.081C259.184 742.958 258.934 742.897 258.666 742.897C258.22 742.897 257.859 743.047 257.583 743.346C257.314 743.638 257.18 743.987 257.18 744.395C257.18 744.802 257.314 745.155 257.583 745.454C257.859 745.746 258.22 745.892 258.666 745.892C258.942 745.892 259.196 745.831 259.426 745.708C259.656 745.577 259.825 745.393 259.933 745.155L260.566 745.535C260.382 745.865 260.121 746.126 259.783 746.318C259.445 746.51 259.073 746.606 258.666 746.606ZM267.06 748.427V747.701L269.963 744.775C270.793 743.945 271.208 743.235 271.208 742.643C271.208 742.129 271.046 741.73 270.724 741.445C270.409 741.154 270.029 741.008 269.583 741.008C268.754 741.008 268.151 741.388 267.775 742.148L267.095 741.745C267.348 741.246 267.694 740.869 268.132 740.616C268.569 740.355 269.053 740.224 269.583 740.224C270.228 740.224 270.793 740.443 271.277 740.881C271.768 741.311 272.014 741.899 272.014 742.643C272.014 743.112 271.883 743.561 271.622 743.991C271.361 744.421 270.993 744.875 270.516 745.351L268.212 747.643H272.187V748.427H267.06ZM278.645 747.436C278.115 748.188 277.366 748.565 276.399 748.565C275.431 748.565 274.678 748.188 274.141 747.436C273.611 746.675 273.346 745.662 273.346 744.395C273.346 743.127 273.611 742.117 274.141 741.365C274.678 740.604 275.431 740.224 276.399 740.224C277.366 740.224 278.115 740.604 278.645 741.365C279.183 742.117 279.452 743.127 279.452 744.395C279.452 745.662 279.183 746.675 278.645 747.436ZM274.74 746.894C275.139 747.486 275.692 747.781 276.399 747.781C277.105 747.781 277.654 747.486 278.046 746.894C278.445 746.303 278.645 745.47 278.645 744.395C278.645 743.319 278.445 742.486 278.046 741.895C277.654 741.303 277.105 741.008 276.399 741.008C275.692 741.008 275.139 741.303 274.74 741.895C274.348 742.486 274.152 743.319 274.152 744.395C274.152 745.47 274.348 746.303 274.74 746.894ZM280.605 748.427V747.701L283.508 744.775C284.337 743.945 284.752 743.235 284.752 742.643C284.752 742.129 284.591 741.73 284.268 741.445C283.953 741.154 283.573 741.008 283.128 741.008C282.298 741.008 281.695 741.388 281.319 742.148L280.639 741.745C280.893 741.246 281.239 740.869 281.676 740.616C282.114 740.355 282.598 740.224 283.128 740.224C283.773 740.224 284.337 740.443 284.821 740.881C285.313 741.311 285.559 741.899 285.559 742.643C285.559 743.112 285.428 743.561 285.167 743.991C284.906 744.421 284.537 744.875 284.061 745.351L281.757 747.643H285.731V748.427H280.605ZM288.731 740.363H289.422V748.427H288.616V741.25L286.807 741.791L286.6 741.1L288.731 740.363ZM292.646 747.447L291.955 750.039H291.264L291.724 747.447H292.646ZM304.975 740.363V748.427H304.169V741.584L301.346 746.307H301.231L298.409 741.584V748.427H297.602V740.363H298.605L301.289 744.855L303.973 740.363H304.975ZM311.758 747.701C311.174 748.277 310.46 748.565 309.615 748.565C308.771 748.565 308.053 748.277 307.461 747.701C306.877 747.117 306.586 746.399 306.586 745.547C306.586 744.694 306.877 743.98 307.461 743.404C308.053 742.82 308.771 742.528 309.615 742.528C310.46 742.528 311.174 742.82 311.758 743.404C312.349 743.98 312.645 744.694 312.645 745.547C312.645 746.399 312.349 747.117 311.758 747.701ZM308.003 747.171C308.44 747.609 308.978 747.827 309.615 747.827C310.253 747.827 310.79 747.609 311.228 747.171C311.666 746.725 311.885 746.184 311.885 745.547C311.885 744.909 311.666 744.371 311.228 743.934C310.79 743.488 310.253 743.266 309.615 743.266C308.978 743.266 308.44 743.488 308.003 743.934C307.565 744.371 307.346 744.909 307.346 745.547C307.346 746.184 307.565 746.725 308.003 747.171ZM316.832 748.565C315.964 748.565 315.242 748.277 314.666 747.701C314.09 747.117 313.802 746.399 313.802 745.547C313.802 744.694 314.09 743.98 314.666 743.404C315.242 742.82 315.964 742.528 316.832 742.528C317.4 742.528 317.911 742.667 318.364 742.943C318.817 743.212 319.148 743.577 319.355 744.037L318.733 744.395C318.579 744.049 318.33 743.776 317.984 743.577C317.646 743.369 317.262 743.266 316.832 743.266C316.195 743.266 315.657 743.488 315.219 743.934C314.782 744.371 314.563 744.909 314.563 745.547C314.563 746.184 314.782 746.725 315.219 747.171C315.657 747.609 316.195 747.827 316.832 747.827C317.262 747.827 317.646 747.728 317.984 747.528C318.322 747.321 318.587 747.044 318.779 746.699L319.413 747.067C319.174 747.528 318.825 747.893 318.364 748.162C317.903 748.43 317.393 748.565 316.832 748.565ZM325.389 748.427H324.375L321.495 745.65V748.427H320.735V742.667H321.495V745.212L324.237 742.667H325.273L322.301 745.431L325.389 748.427ZM330.911 747.701C330.327 748.277 329.613 748.565 328.768 748.565C327.923 748.565 327.205 748.277 326.614 747.701C326.03 747.117 325.738 746.399 325.738 745.547C325.738 744.694 326.03 743.98 326.614 743.404C327.205 742.82 327.923 742.528 328.768 742.528C329.613 742.528 330.327 742.82 330.911 743.404C331.502 743.98 331.798 744.694 331.798 745.547C331.798 746.399 331.502 747.117 330.911 747.701ZM327.155 747.171C327.593 747.609 328.13 747.827 328.768 747.827C329.405 747.827 329.943 747.609 330.381 747.171C330.818 746.725 331.037 746.184 331.037 745.547C331.037 744.909 330.818 744.371 330.381 743.934C329.943 743.488 329.405 743.266 328.768 743.266C328.13 743.266 327.593 743.488 327.155 743.934C326.717 744.371 326.498 744.909 326.498 745.547C326.498 746.184 326.717 746.725 327.155 747.171ZM336.964 745.466C337.593 745.696 337.908 746.146 337.908 746.814C337.908 747.282 337.751 747.67 337.436 747.977C337.129 748.277 336.683 748.427 336.1 748.427H333.3V742.667H335.869C336.43 742.667 336.864 742.812 337.171 743.104C337.478 743.388 337.632 743.757 337.632 744.21C337.632 744.786 337.409 745.205 336.964 745.466ZM335.869 743.404H334.061V745.155H335.869C336.537 745.155 336.872 744.855 336.872 744.256C336.872 743.987 336.783 743.78 336.607 743.634C336.438 743.481 336.192 743.404 335.869 743.404ZM336.1 747.689C336.438 747.689 336.695 747.609 336.872 747.447C337.056 747.286 337.148 747.059 337.148 746.768C337.148 746.499 337.056 746.288 336.872 746.134C336.695 745.973 336.438 745.892 336.1 745.892H334.061V747.689H336.1ZM341.975 748.565C341.107 748.565 340.385 748.277 339.809 747.701C339.233 747.117 338.945 746.399 338.945 745.547C338.945 744.694 339.233 743.98 339.809 743.404C340.385 742.82 341.107 742.528 341.975 742.528C342.543 742.528 343.054 742.667 343.507 742.943C343.96 743.212 344.29 743.577 344.498 744.037L343.876 744.395C343.722 744.049 343.473 743.776 343.127 743.577C342.789 743.369 342.405 743.266 341.975 743.266C341.337 743.266 340.8 743.488 340.362 743.934C339.924 744.371 339.705 744.909 339.705 745.547C339.705 746.184 339.924 746.725 340.362 747.171C340.8 747.609 341.337 747.827 341.975 747.827C342.405 747.827 342.789 747.728 343.127 747.528C343.465 747.321 343.73 747.044 343.922 746.699L344.555 747.067C344.317 747.528 343.968 747.893 343.507 748.162C343.046 748.43 342.536 748.565 341.975 748.565ZM350.531 748.427H349.518L346.638 745.65V748.427H345.877V742.667H346.638V745.212L349.379 742.667H350.416L347.444 745.431L350.531 748.427ZM355.994 742.667H356.639V748.427H355.878V743.991L352.445 748.427H351.8V742.667H352.561V747.102L355.994 742.667ZM359.399 741.745V741.077H362.394V741.745H359.399ZM362.67 742.667H363.315V748.427H362.555V743.991L359.122 748.427H358.477V742.667H359.237V747.102L362.67 742.667ZM374.139 740.363V748.427H373.333V741.123H369.186V748.427H368.379V740.363H374.139ZM380.926 747.701C380.343 748.277 379.628 748.565 378.784 748.565C377.939 748.565 377.221 748.277 376.629 747.701C376.046 747.117 375.754 746.399 375.754 745.547C375.754 744.694 376.046 743.98 376.629 743.404C377.221 742.82 377.939 742.528 378.784 742.528C379.628 742.528 380.343 742.82 380.926 743.404C381.518 743.98 381.813 744.694 381.813 745.547C381.813 746.399 381.518 747.117 380.926 747.701ZM377.171 747.171C377.609 747.609 378.146 747.827 378.784 747.827C379.421 747.827 379.959 747.609 380.396 747.171C380.834 746.725 381.053 746.184 381.053 745.547C381.053 744.909 380.834 744.371 380.396 743.934C379.959 743.488 379.421 743.266 378.784 743.266C378.146 743.266 377.609 743.488 377.171 743.934C376.733 744.371 376.514 744.909 376.514 745.547C376.514 746.184 376.733 746.725 377.171 747.171ZM387.814 742.667V748.427H387.054V743.404H384.45V745.973C384.45 746.933 384.266 747.593 383.897 747.954C383.536 748.315 383.037 748.473 382.4 748.427V747.712C382.838 747.758 383.16 747.655 383.368 747.401C383.583 747.148 383.69 746.672 383.69 745.973V742.667H387.814ZM393.848 742.667H394.494V748.427H393.733V743.991L390.3 748.427H389.655V742.667H390.416V747.102L393.848 742.667ZM400.479 742.667V743.404H398.44V748.427H397.68V743.404H395.641V742.667H400.479ZM404.072 742.528C404.925 742.528 405.612 742.832 406.134 743.438C406.664 744.037 406.929 744.748 406.929 745.57C406.929 745.654 406.921 745.773 406.906 745.927H401.849C401.926 746.51 402.171 746.975 402.586 747.321C403.008 747.659 403.527 747.827 404.141 747.827C404.579 747.827 404.955 747.739 405.27 747.563C405.593 747.378 405.835 747.14 405.996 746.848L406.664 747.24C406.411 747.647 406.065 747.97 405.627 748.208C405.19 748.446 404.69 748.565 404.13 748.565C403.223 748.565 402.486 748.281 401.918 747.712C401.35 747.144 401.065 746.422 401.065 745.547C401.065 744.686 401.346 743.968 401.906 743.392C402.467 742.816 403.189 742.528 404.072 742.528ZM404.072 743.266C403.473 743.266 402.97 743.446 402.563 743.807C402.164 744.16 401.926 744.621 401.849 745.189H406.146C406.069 744.583 405.835 744.11 405.443 743.772C405.051 743.435 404.594 743.266 404.072 743.266ZM412.982 748.427H412.072L410.275 746.053L408.478 748.427H407.568L409.826 745.443L407.718 742.667H408.628L410.275 744.844L411.922 742.667H412.833L410.736 745.443L412.982 748.427ZM418.325 742.667H419.085V748.427H418.325V745.915H415.007V748.427H414.247V742.667H415.007V745.178H418.325V742.667ZM425.117 742.667H425.762V748.427H425.002V743.991L421.569 748.427H420.923V742.667H421.684V747.102L425.117 742.667ZM431.333 742.667H432.093V748.427H431.333V746.238C430.887 746.468 430.338 746.583 429.685 746.583C428.933 746.583 428.357 746.411 427.957 746.065C427.566 745.712 427.37 745.193 427.37 744.51V742.667H428.13V744.51C428.13 744.994 428.257 745.343 428.51 745.558C428.764 745.765 429.148 745.869 429.662 745.869C430.261 745.869 430.818 745.758 431.333 745.535V742.667ZM436.6 742.528C437.453 742.528 438.14 742.832 438.662 743.438C439.192 744.037 439.457 744.748 439.457 745.57C439.457 745.654 439.45 745.773 439.434 745.927H434.377C434.454 746.51 434.7 746.975 435.114 747.321C435.537 747.659 436.055 747.827 436.669 747.827C437.107 747.827 437.484 747.739 437.798 747.563C438.121 747.378 438.363 747.14 438.524 746.848L439.192 747.24C438.939 747.647 438.593 747.97 438.156 748.208C437.718 748.446 437.219 748.565 436.658 748.565C435.752 748.565 435.014 748.281 434.446 747.712C433.878 747.144 433.594 746.422 433.594 745.547C433.594 744.686 433.874 743.968 434.435 743.392C434.995 742.816 435.717 742.528 436.6 742.528ZM436.6 743.266C436.001 743.266 435.498 743.446 435.091 743.807C434.692 744.16 434.454 744.621 434.377 745.189H438.674C438.597 744.583 438.363 744.11 437.971 743.772C437.58 743.435 437.123 743.266 436.6 743.266ZM443.581 748.565C442.713 748.565 441.992 748.277 441.416 747.701C440.84 747.117 440.552 746.399 440.552 745.547C440.552 744.694 440.84 743.98 441.416 743.404C441.992 742.82 442.713 742.528 443.581 742.528C444.15 742.528 444.66 742.667 445.113 742.943C445.567 743.212 445.897 743.577 446.104 744.037L445.482 744.395C445.329 744.049 445.079 743.776 444.733 743.577C444.395 743.369 444.011 743.266 443.581 743.266C442.944 743.266 442.406 743.488 441.969 743.934C441.531 744.371 441.312 744.909 441.312 745.547C441.312 746.184 441.531 746.725 441.969 747.171C442.406 747.609 442.944 747.827 443.581 747.827C444.011 747.827 444.395 747.728 444.733 747.528C445.071 747.321 445.336 747.044 445.528 746.699L446.162 747.067C445.924 747.528 445.574 747.893 445.113 748.162C444.653 748.43 444.142 748.565 443.581 748.565ZM452.138 748.427H451.124L448.244 745.65V748.427H447.484V742.667H448.244V745.212L450.986 742.667H452.023L449.051 745.431L452.138 748.427ZM457.6 742.667H458.245V748.427H457.485V743.991L454.052 748.427H453.407V742.667H454.167V747.102L457.6 742.667ZM461.005 741.745V741.077H464V741.745H461.005ZM464.277 742.667H464.922V748.427H464.161V743.991L460.728 748.427H460.083V742.667H460.844V747.102L464.277 742.667ZM474.686 740.363H475.515L472.831 746.664C472.562 747.309 472.22 747.774 471.806 748.058C471.391 748.342 470.876 748.465 470.262 748.427V747.689C470.692 747.735 471.045 747.674 471.322 747.505C471.606 747.328 471.84 747.025 472.025 746.595L472.186 746.215L469.41 740.363H470.239L472.566 745.316L474.686 740.363ZM480.4 742.667H481.16V748.427H480.4V745.915H477.082V748.427H476.322V742.667H477.082V745.178H480.4V742.667ZM487.192 742.667H487.837V748.427H487.077V743.991L483.644 748.427H482.999V742.667H483.759V747.102L487.192 742.667ZM493.339 745.466C493.968 745.696 494.283 746.146 494.283 746.814C494.283 747.282 494.126 747.67 493.811 747.977C493.504 748.277 493.058 748.427 492.475 748.427H489.675V742.667H492.244C492.805 742.667 493.239 742.812 493.546 743.104C493.853 743.388 494.007 743.757 494.007 744.21C494.007 744.786 493.784 745.205 493.339 745.466ZM492.244 743.404H490.436V745.155H492.244C492.912 745.155 493.247 744.855 493.247 744.256C493.247 743.987 493.158 743.78 492.982 743.634C492.813 743.481 492.567 743.404 492.244 743.404ZM492.475 747.689C492.813 747.689 493.07 747.609 493.247 747.447C493.431 747.286 493.523 747.059 493.523 746.768C493.523 746.499 493.431 746.288 493.247 746.134C493.07 745.973 492.813 745.892 492.475 745.892H490.436V747.689H492.475ZM498.327 742.528C499.179 742.528 499.867 742.832 500.389 743.438C500.919 744.037 501.184 744.748 501.184 745.57C501.184 745.654 501.176 745.773 501.161 745.927H496.104C496.18 746.51 496.426 746.975 496.841 747.321C497.263 747.659 497.782 747.827 498.396 747.827C498.834 747.827 499.21 747.739 499.525 747.563C499.848 747.378 500.089 747.14 500.251 746.848L500.919 747.24C500.665 747.647 500.32 747.97 499.882 748.208C499.444 748.446 498.945 748.565 498.384 748.565C497.478 748.565 496.741 748.281 496.173 747.712C495.604 747.144 495.32 746.422 495.32 745.547C495.32 744.686 495.6 743.968 496.161 743.392C496.722 742.816 497.444 742.528 498.327 742.528ZM498.327 743.266C497.728 743.266 497.225 743.446 496.818 743.807C496.418 744.16 496.18 744.621 496.104 745.189H500.4C500.324 744.583 500.089 744.11 499.698 743.772C499.306 743.435 498.849 743.266 498.327 743.266ZM505.711 742.528C506.533 742.528 507.232 742.82 507.808 743.404C508.391 743.987 508.683 744.702 508.683 745.547C508.683 746.391 508.391 747.106 507.808 747.689C507.232 748.273 506.533 748.565 505.711 748.565C504.69 748.565 503.914 748.142 503.384 747.298V750.731H502.624V742.667H503.384V743.795C503.914 742.951 504.69 742.528 505.711 742.528ZM504.041 747.171C504.478 747.609 505.016 747.827 505.653 747.827C506.291 747.827 506.828 747.609 507.266 747.171C507.704 746.725 507.923 746.184 507.923 745.547C507.923 744.909 507.704 744.371 507.266 743.934C506.828 743.488 506.291 743.266 505.653 743.266C505.016 743.266 504.478 743.488 504.041 743.934C503.603 744.371 503.384 744.909 503.384 745.547C503.384 746.184 503.603 746.725 504.041 747.171ZM512.862 748.565C511.994 748.565 511.272 748.277 510.696 747.701C510.12 747.117 509.832 746.399 509.832 745.547C509.832 744.694 510.12 743.98 510.696 743.404C511.272 742.82 511.994 742.528 512.862 742.528C513.43 742.528 513.941 742.667 514.394 742.943C514.847 743.212 515.177 743.577 515.385 744.037L514.763 744.395C514.609 744.049 514.36 743.776 514.014 743.577C513.676 743.369 513.292 743.266 512.862 743.266C512.225 743.266 511.687 743.488 511.249 743.934C510.811 744.371 510.593 744.909 510.593 745.547C510.593 746.184 510.811 746.725 511.249 747.171C511.687 747.609 512.225 747.827 512.862 747.827C513.292 747.827 513.676 747.728 514.014 747.528C514.352 747.321 514.617 747.044 514.809 746.699L515.442 747.067C515.204 747.528 514.855 747.893 514.394 748.162C513.933 748.43 513.423 748.565 512.862 748.565ZM520.958 742.667H521.603V748.427H520.843V743.991L517.41 748.427H516.764V742.667H517.525V747.102L520.958 742.667ZM527.588 742.667V743.404H525.549V748.427H524.789V743.404H522.75V742.667H527.588ZM531.181 742.528C532.034 742.528 532.721 742.832 533.243 743.438C533.773 744.037 534.038 744.748 534.038 745.57C534.038 745.654 534.031 745.773 534.015 745.927H528.958C529.035 746.51 529.281 746.975 529.695 747.321C530.118 747.659 530.636 747.827 531.251 747.827C531.688 747.827 532.065 747.739 532.379 747.563C532.702 747.378 532.944 747.14 533.105 746.848L533.773 747.24C533.52 747.647 533.174 747.97 532.737 748.208C532.299 748.446 531.8 748.565 531.239 748.565C530.333 748.565 529.595 748.281 529.027 747.712C528.459 747.144 528.175 746.422 528.175 745.547C528.175 744.686 528.455 743.968 529.016 743.392C529.576 742.816 530.298 742.528 531.181 742.528ZM531.181 743.266C530.582 743.266 530.079 743.446 529.672 743.807C529.273 744.16 529.035 744.621 528.958 745.189H533.255C533.178 744.583 532.944 744.11 532.552 743.772C532.161 743.435 531.704 743.266 531.181 743.266ZM539.4 742.667V743.404H537.361V748.427H536.601V743.404H534.562V742.667H539.4ZM261.845 757.16C262.559 757.697 262.916 758.442 262.916 759.395C262.916 760.347 262.559 761.092 261.845 761.629C261.139 762.167 260.202 762.463 259.034 762.516V763.427H258.228V762.516C257.06 762.463 256.12 762.167 255.405 761.629C254.699 761.092 254.346 760.347 254.346 759.395C254.346 758.442 254.699 757.697 255.405 757.16C256.12 756.622 257.06 756.326 258.228 756.273V755.363H259.034V756.273C260.202 756.326 261.139 756.622 261.845 757.16ZM255.981 757.69C255.428 758.089 255.152 758.657 255.152 759.395C255.152 760.132 255.428 760.704 255.981 761.111C256.534 761.51 257.283 761.733 258.228 761.779V757.01C257.283 757.056 256.534 757.283 255.981 757.69ZM259.034 761.779C259.979 761.733 260.728 761.51 261.281 761.111C261.834 760.704 262.11 760.132 262.11 759.395C262.11 758.657 261.834 758.089 261.281 757.69C260.728 757.283 259.979 757.056 259.034 757.01V761.779ZM269.249 757.667H270.009V763.427H269.249V762.298C268.719 763.142 267.944 763.565 266.922 763.565C266.1 763.565 265.398 763.273 264.814 762.689C264.238 762.106 263.95 761.391 263.95 760.547C263.95 759.702 264.238 758.987 264.814 758.404C265.398 757.82 266.1 757.528 266.922 757.528C267.944 757.528 268.719 757.951 269.249 758.795V757.667ZM265.367 762.171C265.805 762.609 266.342 762.827 266.98 762.827C267.617 762.827 268.155 762.609 268.593 762.171C269.03 761.725 269.249 761.184 269.249 760.547C269.249 759.909 269.03 759.371 268.593 758.934C268.155 758.488 267.617 758.266 266.98 758.266C266.342 758.266 265.805 758.488 265.367 758.934C264.929 759.371 264.71 759.909 264.71 760.547C264.71 761.184 264.929 761.725 265.367 762.171ZM276.504 763.427H275.49L272.61 760.65V763.427H271.85V757.667H272.61V760.212L275.352 757.667H276.389L273.416 760.431L276.504 763.427ZM281.695 757.667H282.501L280.036 763.956C279.813 764.525 279.494 764.97 279.08 765.293C278.673 765.623 278.216 765.769 277.709 765.731V765.016C278.4 765.093 278.926 764.694 279.287 763.818L279.437 763.461L276.856 757.667H277.663L279.829 762.493L281.695 757.667ZM288.025 757.667V763.427H287.265V758.404H284.661V760.973C284.661 761.933 284.477 762.593 284.108 762.954C283.747 763.315 283.248 763.473 282.611 763.427V762.712C283.048 762.758 283.371 762.655 283.578 762.401C283.793 762.148 283.901 761.672 283.901 760.973V757.667H288.025ZM292.204 759.855C292.742 759.855 293.195 760.024 293.564 760.362C293.94 760.692 294.128 761.119 294.128 761.641C294.128 762.163 293.94 762.593 293.564 762.931C293.195 763.261 292.742 763.427 292.204 763.427H289.866V757.667H290.626V759.855H292.204ZM292.204 762.689C292.527 762.689 292.8 762.593 293.022 762.401C293.253 762.209 293.368 761.956 293.368 761.641C293.368 761.326 293.253 761.073 293.022 760.881C292.8 760.689 292.527 760.593 292.204 760.593H290.626V762.689H292.204ZM298.969 757.667V758.404H296.929V763.427H296.169V758.404H294.13V757.667H298.969ZM302.562 757.528C303.414 757.528 304.101 757.832 304.624 758.438C305.154 759.037 305.419 759.748 305.419 760.57C305.419 760.654 305.411 760.773 305.395 760.927H300.338C300.415 761.51 300.661 761.975 301.075 762.321C301.498 762.659 302.016 762.827 302.631 762.827C303.068 762.827 303.445 762.739 303.76 762.563C304.082 762.378 304.324 762.14 304.485 761.848L305.154 762.24C304.9 762.647 304.555 762.97 304.117 763.208C303.679 763.446 303.18 763.565 302.619 763.565C301.713 763.565 300.976 763.281 300.407 762.712C299.839 762.144 299.555 761.422 299.555 760.547C299.555 759.686 299.835 758.968 300.396 758.392C300.956 757.816 301.678 757.528 302.562 757.528ZM302.562 758.266C301.963 758.266 301.459 758.446 301.052 758.807C300.653 759.16 300.415 759.621 300.338 760.189H304.635C304.558 759.583 304.324 759.11 303.932 758.772C303.541 758.435 303.084 758.266 302.562 758.266ZM310.781 757.667V758.404H308.742V763.427H307.981V758.404H305.942V757.667H310.781ZM319.241 757.667H319.886V763.427H319.126V758.991L315.693 763.427H315.048V757.667H315.808V762.102L319.241 757.667ZM325.803 757.667H326.563V763.427H325.803V760.915H322.485V763.427H321.725V757.667H322.485V760.178H325.803V757.667ZM334.023 758.496C334.576 759.057 334.852 759.74 334.852 760.547C334.852 761.353 334.576 762.036 334.023 762.597C333.47 763.158 332.74 763.476 331.834 763.553V765.731H331.074V763.553C330.168 763.476 329.438 763.158 328.885 762.597C328.332 762.036 328.056 761.353 328.056 760.547C328.056 759.74 328.332 759.057 328.885 758.496C329.438 757.935 330.168 757.617 331.074 757.54V755.363H331.834V757.54C332.74 757.617 333.47 757.935 334.023 758.496ZM329.426 759.026C329.019 759.441 328.816 759.947 328.816 760.547C328.816 761.146 329.019 761.656 329.426 762.079C329.834 762.493 330.383 762.735 331.074 762.804V758.289C330.383 758.358 329.834 758.603 329.426 759.026ZM331.834 762.804C332.525 762.735 333.074 762.493 333.482 762.079C333.889 761.656 334.092 761.146 334.092 760.547C334.092 759.947 333.889 759.441 333.482 759.026C333.074 758.603 332.525 758.358 331.834 758.289V762.804ZM341.176 762.701C340.592 763.277 339.878 763.565 339.033 763.565C338.188 763.565 337.47 763.277 336.879 762.701C336.295 762.117 336.004 761.399 336.004 760.547C336.004 759.694 336.295 758.98 336.879 758.404C337.47 757.82 338.188 757.528 339.033 757.528C339.878 757.528 340.592 757.82 341.176 758.404C341.767 758.98 342.063 759.694 342.063 760.547C342.063 761.399 341.767 762.117 341.176 762.701ZM337.42 762.171C337.858 762.609 338.396 762.827 339.033 762.827C339.671 762.827 340.208 762.609 340.646 762.171C341.084 761.725 341.303 761.184 341.303 760.547C341.303 759.909 341.084 759.371 340.646 758.934C340.208 758.488 339.671 758.266 339.033 758.266C338.396 758.266 337.858 758.488 337.42 758.934C336.983 759.371 336.764 759.909 336.764 760.547C336.764 761.184 336.983 761.725 337.42 762.171ZM346.653 757.528C347.475 757.528 348.174 757.82 348.75 758.404C349.333 758.987 349.625 759.702 349.625 760.547C349.625 761.391 349.333 762.106 348.75 762.689C348.174 763.273 347.475 763.565 346.653 763.565C345.632 763.565 344.856 763.142 344.326 762.298V765.731H343.566V757.667H344.326V758.795C344.856 757.951 345.632 757.528 346.653 757.528ZM344.983 762.171C345.42 762.609 345.958 762.827 346.596 762.827C347.233 762.827 347.771 762.609 348.208 762.171C348.646 761.725 348.865 761.184 348.865 760.547C348.865 759.909 348.646 759.371 348.208 758.934C347.771 758.488 347.233 758.266 346.596 758.266C345.958 758.266 345.42 758.488 344.983 758.934C344.545 759.371 344.326 759.909 344.326 760.547C344.326 761.184 344.545 761.725 344.983 762.171ZM356.765 757.667V763.427H356.004V758.83L353.988 762.102H353.896L351.88 758.83V763.427H351.12V757.667H351.995L353.942 760.823L355.889 757.667H356.765ZM363.56 757.667H364.32V763.427H363.56V762.298C363.03 763.142 362.255 763.565 361.233 763.565C360.411 763.565 359.709 763.273 359.125 762.689C358.549 762.106 358.261 761.391 358.261 760.547C358.261 759.702 358.549 758.987 359.125 758.404C359.709 757.82 360.411 757.528 361.233 757.528C362.255 757.528 363.03 757.951 363.56 758.795V757.667ZM359.678 762.171C360.116 762.609 360.653 762.827 361.291 762.827C361.928 762.827 362.466 762.609 362.904 762.171C363.341 761.725 363.56 761.184 363.56 760.547C363.56 759.909 363.341 759.371 362.904 758.934C362.466 758.488 361.928 758.266 361.291 758.266C360.653 758.266 360.116 758.488 359.678 758.934C359.24 759.371 359.021 759.909 359.021 760.547C359.021 761.184 359.24 761.725 359.678 762.171ZM370.884 762.689H371.806V764.97H371.045V763.427H366.161V757.667H366.921V762.689H370.124V757.667H370.884V762.689ZM377.379 757.667H378.025V763.427H377.264V758.991L373.831 763.427H373.186V757.667H373.946V762.102L377.379 757.667ZM384.69 762.701C384.106 763.277 383.392 763.565 382.547 763.565C381.702 763.565 380.984 763.277 380.393 762.701C379.809 762.117 379.517 761.399 379.517 760.547C379.517 759.694 379.809 758.98 380.393 758.404C380.984 757.82 381.702 757.528 382.547 757.528C383.392 757.528 384.106 757.82 384.69 758.404C385.281 758.98 385.577 759.694 385.577 760.547C385.577 761.399 385.281 762.117 384.69 762.701ZM380.934 762.171C381.372 762.609 381.909 762.827 382.547 762.827C383.184 762.827 383.722 762.609 384.16 762.171C384.597 761.725 384.816 761.184 384.816 760.547C384.816 759.909 384.597 759.371 384.16 758.934C383.722 758.488 383.184 758.266 382.547 758.266C381.909 758.266 381.372 758.488 380.934 758.934C380.496 759.371 380.277 759.909 380.277 760.547C380.277 761.184 380.496 761.725 380.934 762.171ZM391.157 757.667H391.918V763.427H391.157V760.915H387.84V763.427H387.079V757.667H387.84V760.178H391.157V757.667ZM397.834 757.667H398.594V763.427H397.834V760.915H394.516V763.427H393.756V757.667H394.516V760.178H397.834V757.667ZM402.771 759.855C403.309 759.855 403.762 760.024 404.131 760.362C404.507 760.692 404.695 761.119 404.695 761.641C404.695 762.163 404.507 762.593 404.131 762.931C403.762 763.261 403.309 763.427 402.771 763.427H400.433V757.667H401.193V759.855H402.771ZM405.502 757.667H406.262V763.427H405.502V757.667ZM402.771 762.689C403.094 762.689 403.366 762.593 403.589 762.401C403.82 762.209 403.935 761.956 403.935 761.641C403.935 761.326 403.82 761.073 403.589 760.881C403.366 760.689 403.094 760.593 402.771 760.593H401.193V762.689H402.771ZM412.949 763.427H412.039L410.242 761.053L408.445 763.427H407.535L409.793 760.443L407.684 757.667H408.594L410.242 759.844L411.889 757.667H412.799L410.703 760.443L412.949 763.427ZM421.471 757.667V758.404H419.432V763.427H418.672V758.404H416.633V757.667H421.471ZM425.064 757.528C425.917 757.528 426.604 757.832 427.126 758.438C427.656 759.037 427.921 759.748 427.921 760.57C427.921 760.654 427.913 760.773 427.898 760.927H422.841C422.918 761.51 423.163 761.975 423.578 762.321C424.001 762.659 424.519 762.827 425.133 762.827C425.571 762.827 425.947 762.739 426.262 762.563C426.585 762.378 426.827 762.14 426.988 761.848L427.656 762.24C427.403 762.647 427.057 762.97 426.619 763.208C426.182 763.446 425.682 763.565 425.122 763.565C424.216 763.565 423.478 763.281 422.91 762.712C422.342 762.144 422.057 761.422 422.057 760.547C422.057 759.686 422.338 758.968 422.898 758.392C423.459 757.816 424.181 757.528 425.064 757.528ZM425.064 758.266C424.465 758.266 423.962 758.446 423.555 758.807C423.156 759.16 422.918 759.621 422.841 760.189H427.138C427.061 759.583 426.827 759.11 426.435 758.772C426.043 758.435 425.586 758.266 425.064 758.266ZM433.439 757.667H434.199V763.427H433.439V760.915H430.121V763.427H429.361V757.667H430.121V760.178H433.439V757.667ZM440.876 763.427H439.966L438.169 761.053L436.372 763.427H435.462L437.72 760.443L435.611 757.667H436.521L438.169 759.844L439.816 757.667H440.726L438.63 760.443L440.876 763.427ZM446.562 762.701C445.979 763.277 445.264 763.565 444.42 763.565C443.575 763.565 442.857 763.277 442.265 762.701C441.682 762.117 441.39 761.399 441.39 760.547C441.39 759.694 441.682 758.98 442.265 758.404C442.857 757.82 443.575 757.528 444.42 757.528C445.264 757.528 445.979 757.82 446.562 758.404C447.154 758.98 447.449 759.694 447.449 760.547C447.449 761.399 447.154 762.117 446.562 762.701ZM442.807 762.171C443.245 762.609 443.782 762.827 444.42 762.827C445.057 762.827 445.595 762.609 446.032 762.171C446.47 761.725 446.689 761.184 446.689 760.547C446.689 759.909 446.47 759.371 446.032 758.934C445.595 758.488 445.057 758.266 444.42 758.266C443.782 758.266 443.245 758.488 442.807 758.934C442.369 759.371 442.15 759.909 442.15 760.547C442.15 761.184 442.369 761.725 442.807 762.171ZM453.45 757.667V763.427H452.69V758.404H450.087V760.973C450.087 761.933 449.902 762.593 449.534 762.954C449.173 763.315 448.673 763.473 448.036 763.427V762.712C448.474 762.758 448.796 762.655 449.004 762.401C449.219 762.148 449.326 761.672 449.326 760.973V757.667H453.45ZM460.118 762.701C459.535 763.277 458.82 763.565 457.975 763.565C457.131 763.565 456.413 763.277 455.821 762.701C455.238 762.117 454.946 761.399 454.946 760.547C454.946 759.694 455.238 758.98 455.821 758.404C456.413 757.82 457.131 757.528 457.975 757.528C458.82 757.528 459.535 757.82 460.118 758.404C460.71 758.98 461.005 759.694 461.005 760.547C461.005 761.399 460.71 762.117 460.118 762.701ZM456.363 762.171C456.8 762.609 457.338 762.827 457.975 762.827C458.613 762.827 459.151 762.609 459.588 762.171C460.026 761.725 460.245 761.184 460.245 760.547C460.245 759.909 460.026 759.371 459.588 758.934C459.151 758.488 458.613 758.266 457.975 758.266C457.338 758.266 456.8 758.488 456.363 758.934C455.925 759.371 455.706 759.909 455.706 760.547C455.706 761.184 455.925 761.725 456.363 762.171ZM466.194 757.667V758.404H463.268V763.427H462.508V757.667H466.194ZM471.544 757.667H472.189V763.427H471.429V758.991L467.996 763.427H467.351V757.667H468.111V762.102L471.544 757.667ZM474.949 756.745V756.077H477.944V756.745H474.949ZM478.221 757.667H478.866V763.427H478.106V758.991L474.673 763.427H474.028V757.667H474.788V762.102L478.221 757.667Z" fill="#CCCED4"/>
<path d="M1009.44 700.918L1009.44 700.917C1009.88 700.916 1010.42 700.805 1010.77 700.382C1011.14 699.93 1011.12 699.363 1010.96 698.888C1010.81 698.417 1010.49 697.911 1010.12 697.414C1009.74 696.899 1009.25 696.329 1008.72 695.726C1008.41 695.363 1008.03 694.988 1007.71 694.678L1007.71 694.678C1007.37 694.337 1007.14 694.113 1007.05 693.993L1007.05 693.993L1007.05 693.989C1007.02 693.95 1007 693.919 1006.99 693.896C1007.01 693.859 1007.03 693.81 1007.08 693.737L1007.1 693.71C1007.12 693.677 1007.15 693.63 1007.2 693.569C1007.28 693.447 1007.4 693.272 1007.55 693.058C1007.84 692.631 1008.23 692.044 1008.64 691.411C1009.04 690.779 1009.46 690.093 1009.8 689.468C1010.12 688.881 1010.41 688.273 1010.52 687.802C1010.62 687.458 1010.68 686.962 1010.37 686.53C1010.05 686.073 1009.52 685.957 1009.06 685.957H1006.58C1006.12 685.957 1005.73 686.083 1005.42 686.32C1005.11 686.55 1004.94 686.842 1004.82 687.086L1004.82 687.099L1004.81 687.112L1004.81 687.112L1004.81 687.112L1004.81 687.113L1004.81 687.118L1004.8 687.142C1004.79 687.163 1004.78 687.195 1004.76 687.236C1004.72 687.32 1004.67 687.443 1004.6 687.598C1004.45 687.907 1004.25 688.341 1003.98 688.836C1003.46 689.828 1002.73 691.028 1001.9 691.958C1001.81 692.056 1001.72 692.136 1001.65 692.203V687.586C1001.65 687.232 1001.6 686.798 1001.34 686.449C1001.03 686.051 1000.59 685.935 1000.19 685.935H996.294C995.497 685.935 994.932 686.561 994.932 687.254C994.932 687.611 995.073 687.878 995.201 688.067C995.261 688.154 995.327 688.238 995.378 688.302L995.379 688.303L995.385 688.31C995.438 688.377 995.483 688.434 995.529 688.496C995.685 688.711 995.872 689.03 995.913 689.703V693.217C995.63 692.92 995.288 692.467 994.918 691.882C994.182 690.716 993.39 689.109 992.796 687.393L992.796 687.393L992.792 687.382C992.665 687.032 992.495 686.645 992.188 686.361C991.842 686.04 991.422 685.935 990.986 685.935H988.509C988.056 685.935 987.61 686.045 987.292 686.381C986.98 686.711 986.931 687.114 986.931 687.375C986.931 687.646 987.006 688.053 987.137 688.532C987.273 689.031 987.485 689.665 987.793 690.408C988.409 691.894 989.415 693.834 990.983 696.041C993.131 699.149 996.248 700.896 999.16 700.896C999.954 700.896 1000.61 700.817 1001.06 700.516C1001.62 700.135 1001.68 699.559 1001.68 699.196V696.963C1001.68 696.93 1001.68 696.901 1001.68 696.874C1001.87 696.921 1002.4 697.148 1003.54 698.253C1003.94 698.666 1004.27 699.02 1004.54 699.325C1004.58 699.37 1004.62 699.414 1004.66 699.458C1004.88 699.705 1005.09 699.931 1005.27 700.116C1005.49 700.336 1005.73 700.544 1006.01 700.691C1006.31 700.847 1006.63 700.918 1006.97 700.918H1009.44ZM996.293 693.54C996.295 693.541 996.296 693.541 996.296 693.541C996.296 693.541 996.295 693.541 996.293 693.54Z" stroke="#4A46FF" stroke-width="1.48371"/>
<path fill-rule="evenodd" clip-rule="evenodd" d="M1075.27 684.429C1076.23 684.385 1076.54 684.375 1079 684.375C1081.46 684.375 1081.77 684.385 1082.73 684.429C1083.7 684.473 1084.35 684.627 1084.93 684.85C1085.53 685.078 1086.08 685.434 1086.53 685.895C1086.99 686.346 1087.35 686.893 1087.58 687.497C1087.8 688.073 1087.95 688.731 1088 689.694C1088.04 690.661 1088.05 690.969 1088.05 693.427C1088.05 695.885 1088.04 696.193 1088 697.158C1087.95 698.121 1087.8 698.779 1087.58 699.355C1087.35 699.96 1086.99 700.507 1086.53 700.959C1086.08 701.42 1085.53 701.776 1084.93 702.003C1084.35 702.226 1083.7 702.38 1082.73 702.424C1081.77 702.468 1081.46 702.478 1079 702.478C1076.54 702.478 1076.23 702.468 1075.27 702.424C1074.31 702.38 1073.65 702.226 1073.07 702.003C1072.47 701.776 1071.92 701.419 1071.47 700.959C1071.01 700.507 1070.65 699.96 1070.42 699.356C1070.2 698.78 1070.05 698.122 1070 697.159C1069.96 696.192 1069.95 695.884 1069.95 693.427C1069.95 690.968 1069.96 690.66 1070 689.696C1070.05 688.731 1070.2 688.073 1070.42 687.497C1070.65 686.893 1071.01 686.346 1071.47 685.894C1071.92 685.433 1072.47 685.077 1073.07 684.85C1073.65 684.627 1074.3 684.474 1075.27 684.429H1075.27ZM1082.66 686.058C1081.7 686.015 1081.42 686.006 1079 686.006C1076.58 686.006 1076.3 686.015 1075.34 686.058C1074.46 686.099 1073.98 686.246 1073.66 686.37C1073.24 686.535 1072.94 686.73 1072.62 687.047C1072.32 687.339 1072.09 687.695 1071.94 688.088C1071.82 688.407 1071.67 688.886 1071.63 689.769C1071.59 690.723 1071.58 691.01 1071.58 693.427C1071.58 695.843 1071.59 696.13 1071.63 697.084C1071.67 697.967 1071.82 698.446 1071.94 698.765C1072.09 699.158 1072.32 699.514 1072.62 699.806C1072.91 700.107 1073.27 700.338 1073.66 700.483C1073.98 700.607 1074.46 700.754 1075.34 700.795C1076.3 700.838 1076.58 700.847 1079 700.847C1081.42 700.847 1081.7 700.838 1082.66 700.795C1083.54 700.754 1084.02 700.607 1084.34 700.483C1084.76 700.318 1085.06 700.123 1085.38 699.806C1085.68 699.514 1085.91 699.158 1086.06 698.765C1086.18 698.446 1086.33 697.967 1086.37 697.084C1086.41 696.13 1086.42 695.843 1086.42 693.427C1086.42 691.01 1086.41 690.723 1086.37 689.769C1086.33 688.886 1086.18 688.407 1086.06 688.088C1085.89 687.665 1085.7 687.363 1085.38 687.047C1085.09 686.746 1084.73 686.515 1084.34 686.37C1084.02 686.246 1083.54 686.099 1082.66 686.058ZM1077.84 696.217C1078.49 696.486 1079.21 696.522 1079.88 696.32C1080.55 696.117 1081.13 695.689 1081.51 695.107C1081.9 694.526 1082.08 693.827 1082.01 693.131C1081.94 692.435 1081.63 691.785 1081.14 691.291C1080.82 690.976 1080.44 690.734 1080.02 690.584C1079.6 690.433 1079.15 690.378 1078.7 690.422C1078.26 690.466 1077.83 690.607 1077.45 690.837C1077.06 691.067 1076.74 691.378 1076.49 691.749C1076.24 692.121 1076.08 692.542 1076.01 692.984C1075.95 693.425 1075.98 693.876 1076.11 694.303C1076.24 694.731 1076.46 695.124 1076.76 695.455C1077.06 695.786 1077.43 696.046 1077.84 696.217ZM1075.71 690.137C1076.14 689.705 1076.66 689.362 1077.22 689.128C1077.78 688.894 1078.39 688.774 1079 688.774C1079.61 688.774 1080.22 688.894 1080.78 689.128C1081.34 689.362 1081.86 689.705 1082.29 690.137C1082.72 690.569 1083.06 691.082 1083.3 691.646C1083.53 692.211 1083.65 692.816 1083.65 693.427C1083.65 694.038 1083.53 694.643 1083.3 695.207C1083.06 695.771 1082.72 696.284 1082.29 696.716C1081.42 697.589 1080.23 698.079 1079 698.079C1077.77 698.079 1076.58 697.589 1075.71 696.716C1074.84 695.844 1074.35 694.66 1074.35 693.427C1074.35 692.193 1074.84 691.009 1075.71 690.137ZM1084.68 689.467C1084.79 689.366 1084.88 689.244 1084.94 689.11C1085 688.975 1085.03 688.83 1085.03 688.683C1085.03 688.535 1085 688.389 1084.95 688.253C1084.89 688.116 1084.81 687.993 1084.71 687.889C1084.6 687.784 1084.48 687.702 1084.34 687.647C1084.21 687.592 1084.06 687.564 1083.91 687.566C1083.77 687.569 1083.62 687.6 1083.49 687.659C1083.35 687.719 1083.23 687.804 1083.13 687.912C1082.93 688.12 1082.83 688.396 1082.83 688.683C1082.83 688.969 1082.95 689.242 1083.15 689.444C1083.35 689.647 1083.63 689.762 1083.91 689.767C1084.2 689.771 1084.48 689.663 1084.68 689.467Z" fill="#4A46FF"/>
<path d="M1155.71 688.943L1155.71 688.921C1155.79 687.459 1156.45 686.089 1157.54 685.11C1158.62 684.136 1160.04 683.627 1161.5 683.694H1163.96C1164.31 683.694 1164.64 683.831 1164.88 684.076C1165.13 684.32 1165.26 684.652 1165.26 684.997V687.577C1165.26 687.922 1165.13 688.254 1164.88 688.498C1164.64 688.743 1164.31 688.88 1163.96 688.88H1161.48H1161.48V688.88C1161.43 688.88 1161.39 688.897 1161.35 688.927C1161.32 688.953 1161.3 688.986 1161.3 689.022V690.836H1163.81H1163.82L1163.82 690.836C1164.01 690.838 1164.21 690.884 1164.39 690.973C1164.57 691.062 1164.72 691.191 1164.84 691.35C1164.84 691.35 1164.84 691.35 1164.84 691.35L1155.71 688.943ZM1155.71 688.943V688.965M1155.71 688.943V688.965M1155.71 688.965V690.836M1155.71 688.965V690.836M1155.71 690.836H1154.04C1153.69 690.836 1153.36 690.974 1153.12 691.218C1152.87 691.463 1152.74 691.794 1152.74 692.14V694.719C1152.74 695.065 1152.87 695.396 1153.12 695.641L1153.69 695.07M1155.71 690.836L1153.69 695.07M1153.69 695.07L1153.12 695.641C1153.36 695.885 1153.69 696.022 1154.04 696.022H1155.71V701.861C1155.71 702.207 1155.85 702.538 1156.09 702.783L1156.67 702.212M1153.69 695.07L1156.67 702.212M1156.67 702.212L1156.09 702.783C1156.34 703.027 1156.67 703.165 1157.02 703.165H1159.99C1160.34 703.165 1160.67 703.027 1160.91 702.783L1160.34 702.212L1160.91 702.783C1161.16 702.538 1161.3 702.207 1161.3 701.861V696.022H1163.08C1163.37 696.025 1163.65 695.932 1163.88 695.759L1163.88 695.759C1164.11 695.585 1164.28 695.34 1164.35 695.061L1156.67 702.212Z" stroke="#4A46FF" stroke-width="1.61475"/>
<path d="M0 650.025C427.294 650.025 1437.01 651.427 1437.01 651.427" stroke="#CCCED4"/>
</g>
<defs>
<filter id="filter0_bii" x="-134.494" y="-133.567" width="1708.99" height="355.987" filterUnits="userSpaceOnUse" color-interpolation-filters="sRGB">
<feFlood flood-opacity="0" result="BackgroundImageFix"/>
<feGaussianBlur in="BackgroundImage" stdDeviation="66.4968"/>
<feComposite in2="SourceAlpha" operator="in" result="effect1_backgroundBlur"/>
<feBlend mode="normal" in="SourceGraphic" in2="effect1_backgroundBlur" result="shape"/>
<feColorMatrix in="SourceAlpha" type="matrix" values="0 0 0 0 0 0 0 0 0 0 0 0 0 0 0 0 0 0 127 0" result="hardAlpha"/>
<feOffset dx="-57.8233" dy="57.8233"/>
<feGaussianBlur stdDeviation="28.9117"/>
<feComposite in2="hardAlpha" operator="arithmetic" k2="-1" k3="1"/>
<feColorMatrix type="matrix" values="0 0 0 0 1 0 0 0 0 1 0 0 0 0 1 0 0 0 0.047 0"/>
<feBlend mode="normal" in2="shape" result="effect2_innerShadow"/>
<feColorMatrix in="SourceAlpha" type="matrix" values="0 0 0 0 0 0 0 0 0 0 0 0 0 0 0 0 0 0 127 0" result="hardAlpha"/>
<feOffset dx="57.8233" dy="-57.8233"/>
<feGaussianBlur stdDeviation="28.9117"/>
<feComposite in2="hardAlpha" operator="arithmetic" k2="-1" k3="1"/>
<feColorMatrix type="matrix" values="0 0 0 0 0.584157 0 0 0 0 0.584157 0 0 0 0 0.584157 0 0 0 0.047 0"/>
<feBlend mode="normal" in2="effect2_innerShadow" result="effect3_innerShadow"/>
</filter>
<clipPath id="clip0">
<rect width="1440" height="804" fill="white" transform="translate(0 -0.573486)"/>
</clipPath>
</defs>
</svg>
