<svg width="282" height="412" viewBox="0 0 282 412" fill="none" xmlns="http://www.w3.org/2000/svg">
<g clip-path="url(#clip0)">
<path d="M243.302 250.552L50.5207 268.572L149.679 146.003L323.802 81.1267L243.302 250.552Z" stroke="#4A46FF" stroke-width="0.6" stroke-miterlimit="10"/>
<path d="M250.737 278.3L57.9559 296.32L157.114 173.749L331.237 108.873L250.737 278.3Z" stroke="#4A46FF" stroke-width="0.6" stroke-miterlimit="10"/>
<path d="M258.172 306.046L65.3914 324.068L164.549 201.497L338.672 136.621L258.172 306.046Z" stroke="#4A46FF" stroke-width="0.6" stroke-miterlimit="10"/>
<path d="M265.607 333.794L72.826 351.816L171.984 229.245L346.107 164.369L265.607 333.794Z" stroke="#4A46FF" stroke-width="0.6" stroke-miterlimit="10"/>
<path d="M273.042 361.542L80.2609 379.562L179.42 256.994L353.542 192.117L273.042 361.542Z" stroke="#4A46FF" stroke-width="0.6" stroke-miterlimit="10"/>
<path d="M126.595 126.923L126.302 126.845C128.647 121.497 131.781 116.969 135.703 113.261C139.693 109.489 143.683 106.688 147.672 104.858C151.661 103.023 155.588 101.432 159.453 100.086M126.595 126.923C126.554 127.016 126.514 127.108 126.474 127.201L163.71 137.189M126.595 126.923C128.924 121.627 132.029 117.148 135.909 113.479C139.881 109.724 143.844 106.944 147.797 105.131L147.797 105.13C151.778 103.299 155.696 101.712 159.551 100.37M126.595 126.923L163.543 136.833M163.71 137.189C164.834 134.649 167.121 132.505 170.572 130.756C174.357 128.858 178.266 127.22 182.273 125.852M163.71 137.189L163.436 137.067C163.47 136.989 163.506 136.911 163.543 136.833M163.71 137.189L163.788 136.899L163.543 136.833M182.273 125.852C186.617 124.339 191.1 122.602 195.721 120.64C200.343 118.679 204.824 115.711 209.166 111.737M182.273 125.852L182.176 125.568C178.156 126.94 174.234 128.584 170.438 130.488L170.436 130.488C167.052 132.203 164.738 134.313 163.543 136.833M182.273 125.852L159.551 100.37M209.166 111.737C213.554 107.699 217.126 102.858 219.691 97.4753M209.166 111.737L208.963 111.517C208.963 111.517 208.963 111.516 208.963 111.516M209.166 111.737L208.963 111.516M219.691 97.4753C225.259 85.5655 225.034 74.3009 219.016 63.6813C212.997 53.0617 203.041 45.8906 189.148 42.1679C176.79 38.8565 164.582 38.7119 152.524 41.7341C140.466 44.7563 129.798 51.3508 120.518 61.5176M219.691 97.4753L219.419 97.3482C219.419 97.348 219.419 97.3477 219.419 97.3475M219.691 97.4753L219.42 97.3462C219.42 97.3467 219.419 97.3471 219.419 97.3475M120.518 61.5176L147.887 91.0162C147.955 90.942 148.023 90.8682 148.091 90.7947M120.518 61.5176L120.738 61.3135L120.926 61.5162M120.518 61.5176L120.74 61.7198C120.802 61.6518 120.864 61.5839 120.926 61.5162M148.091 90.7947L148.295 91.0153C156.638 81.9714 164.187 78.3545 170.942 80.1646M148.091 90.7947L120.926 61.5162M148.091 90.7947C156.444 81.7451 164.097 78.02 171.02 79.8747M170.942 80.1646C173.438 80.8317 175.161 82.0377 176.109 83.7824C177.058 85.5271 177.026 87.4538 176.015 89.5624M170.942 80.1646L171.02 79.8747M170.942 80.1646L171.02 79.8748C171.02 79.8748 171.02 79.8748 171.02 79.8747M176.015 89.5624C174.964 91.8124 172.906 93.7919 169.842 95.5008C166.518 97.3263 163.042 98.8605 159.453 100.086M176.015 89.5624L176.286 89.6921C176.286 89.6916 176.286 89.6911 176.286 89.6906C176.286 89.6902 176.287 89.6898 176.287 89.6893L176.015 89.5624ZM159.453 100.086L159.552 100.37C159.551 100.37 159.551 100.37 159.551 100.37M159.453 100.086L159.55 100.37C159.55 100.37 159.551 100.37 159.551 100.37M208.963 111.516C213.322 107.504 216.871 102.695 219.419 97.3475M208.963 111.516L171.02 79.8747M219.419 97.3475C224.95 85.5181 224.721 74.3567 218.755 63.8292C212.783 53.292 202.901 46.1636 189.071 42.4577C176.76 39.159 164.604 39.0156 152.597 42.0251C140.683 45.0112 130.127 51.5038 120.926 61.5162M153.759 170.626L153.759 170.627C150.85 177.073 146.266 181.809 140.002 184.846C133.742 187.881 127.037 188.445 119.872 186.53L119.752 186.498L119.75 186.5C113.224 184.721 108.737 180.987 106.253 175.298C103.751 169.569 103.924 163.565 106.793 157.262L106.52 157.137L106.793 157.262C109.661 150.961 114.37 146.297 120.936 143.264C127.503 140.231 134.152 139.616 140.894 141.415C147.484 143.181 151.974 146.916 154.403 152.62C156.835 158.332 156.629 164.327 153.759 170.626Z" stroke="#4A46FF" stroke-width="0.6"/>
</g>
<defs>
<clipPath id="clip0">
<rect width="313.072" height="340.885" fill="white" transform="translate(0.183594 81.8796) rotate(-15)"/>
</clipPath>
</defs>
</svg>
