<?xml version="1.0" encoding="utf-8"?>
<!-- Generator: Adobe Illustrator 24.2.1, SVG Export Plug-In . SVG Version: 6.00 Build 0)  -->
<svg version="1.1" id="Слой_1" xmlns="http://www.w3.org/2000/svg" xmlns:xlink="http://www.w3.org/1999/xlink" x="0px" y="0px"
	 viewBox="0 0 200 160" style="enable-background:new 0 0 200 160;" xml:space="preserve">
<g>
	<path d="M121,60.7h-0.8V55c0-10.8-9.4-19.8-20.2-19.8s-20.2,9-20.2,19.8v5.7H79c-1.5,0-2.7,1.2-2.7,2.7v37.9c0,1.5,1.2,2.7,2.7,2.7
		h42c1.5,0,2.7-1.2,2.7-2.7V63.4C123.7,61.9,122.5,60.7,121,60.7z M100,44.4c-6.1,0-10.5,4.4-10.5,10.5v5.7h-4.3v-5.7
		c0-7.8,7-14.6,14.8-14.6s14.8,6.8,14.8,14.6v5.7h-4.2v-5.7C110.6,48.8,106.1,44.4,100,44.4z M105.2,54.9v5.7H94.9v-5.7
		c0-3.2,2-5.1,5.1-5.1C103.2,49.8,105.2,51.8,105.2,54.9z M118.3,66v32.5H81.7V66H118.3z"/>
	<path d="M107,75c-0.7-2-2.3-3.7-4.3-4.5s-4.3-0.7-6.2,0.4l0,0c-2.3,1.2-3.8,3.6-3.9,6.1c-0.2,3.3,1.7,6.2,4.7,7.4v8.7
		c0,0.7,0.6,1.3,1.3,1.3h2.9c0.7,0,1.3-0.6,1.3-1.3v-8.7c1.8-0.7,3.2-2,4-3.7C107.6,78.9,107.7,76.9,107,75z M102.8,78.1
		c-0.2,1.1-1.1,2-2.3,2.3c-1,0.2-1.9-0.1-2.6-0.8c-0.7-0.7-1-1.6-0.8-2.6c0.2-1.1,1.1-2,2.3-2.3c0.2,0,0.4-0.1,0.6-0.1
		c0.8,0,1.5,0.3,2,0.8C102.7,76.2,103,77.2,102.8,78.1z"/>
	<path d="M51.6,149.6c0,5.7,4.7,10.4,10.4,10.4h76c5.7,0,10.4-4.7,10.4-10.4V10.4C148.4,4.7,143.8,0,138,0H62
		c-5.7,0-10.4,4.7-10.4,10.4V149.6z M57.1,10.4c0-2.7,2.2-4.8,4.8-4.8H138c2.7,0,4.8,2.2,4.8,4.8v139.3c0,2.7-2.2,4.8-4.8,4.8H62
		c-2.7,0-4.8-2.2-4.8-4.8V10.4H57.1z"/>
	<path d="M134.3,13.6H65.7c-1.5,0-2.8,1.3-2.8,2.8v110.1c0,1.5,1.3,2.8,2.8,2.8h68.5c1.5,0,2.8-1.3,2.8-2.8V16.4
		C137.1,14.8,135.8,13.6,134.3,13.6z M131.5,123.6h-63V19.2h62.9v104.4H131.5z"/>
	<path d="M105.4,133.8H94.6c-1.4,0-2.5,1.1-2.5,2.5v10.8c0,1.4,1.1,2.5,2.5,2.5h10.8c1.4,0,2.5-1.1,2.5-2.5v-10.8
		C107.9,134.9,106.7,133.8,105.4,133.8z M102.9,138.8v5.8h-5.8v-5.8H102.9z"/>
</g>
</svg>
