<?xml version="1.0" encoding="iso-8859-1"?>
<!-- Generator: Adobe Illustrator 25.2.3, SVG Export Plug-In . SVG Version: 6.00 Build 0)  -->
<svg version="1.1" id="&#x421;&#x43B;&#x43E;&#x439;_1"
	 xmlns="http://www.w3.org/2000/svg" xmlns:xlink="http://www.w3.org/1999/xlink" x="0px" y="0px" viewBox="0 0 420 594"
	 style="enable-background:new 0 0 420 594;" xml:space="preserve">
<path style="fill:#C9C8FF;" d="M1.455,25.686C1.455,11.5,11.584,0,24.079,0h373.297C409.87,0,420,11.5,420,25.686v542.627
	C420,582.5,409.87,594,397.376,594H24.079c-12.495,0-22.624-11.5-22.624-25.686V25.686z"/>
<path style="fill:none;stroke:#4A46FF;stroke-width:0.7158;" d="M110.383,516.145h101.643 M313.669,516.145H212.026
	 M212.026,516.145V360.966"/>
<rect x="93.911" y="90" style="fill:#C9C8FF;stroke:#4A46FF;stroke-width:0.7158;" width="236.229" height="310.716"/>
<path style="fill:#4A46FF;" d="M198.9,266.18c0-4.198,1.05-8.201,3.149-12.005c2.229-3.936,4.853-7.347,7.872-10.233
	c3.149-3.018,6.232-5.904,9.249-8.66c3.149-2.754,5.772-5.706,7.872-8.854c2.231-3.15,3.346-6.299,3.346-9.447
	c0-7.609-4.853-11.413-14.563-11.413c-9.446,0-16.53,5.51-21.253,16.53l-27.158-15.548c4.329-9.971,10.89-17.712,19.679-23.222
	c8.921-5.64,18.893-8.461,29.913-8.461c12.07,0,22.565,3.543,31.488,10.627c8.921,7.084,13.382,16.662,13.382,28.732
	c0,5.378-1.115,10.43-3.346,15.153c-2.099,4.723-4.723,8.724-7.872,12.005c-3.018,3.279-6.1,6.297-9.25,9.053
	c-3.017,2.754-5.64,5.443-7.872,8.067c-2.099,2.626-3.149,5.182-3.149,7.676H198.9z M227.827,312.624
	c-3.673,3.673-8.067,5.51-13.184,5.51c-5.117,0-9.513-1.837-13.186-5.51c-3.673-3.673-5.51-8.069-5.51-13.186
	c0-5.116,1.837-9.511,5.51-13.184c3.673-3.673,8.069-5.51,13.186-5.51c5.117,0,9.511,1.837,13.184,5.51
	c3.675,3.673,5.512,8.069,5.512,13.184C233.339,304.555,231.502,308.95,227.827,312.624z"/>
</svg>
