<svg width="371" height="463" viewBox="0 0 371 463" fill="none" xmlns="http://www.w3.org/2000/svg">
<path d="M0.654785 20C0.654785 8.9543 9.60909 0 20.6548 0H350.655C361.7 0 370.655 8.95431 370.655 20V442.5C370.655 453.546 361.7 462.5 350.655 462.5H20.6548C9.6091 462.5 0.654785 453.546 0.654785 442.5V20Z" fill="#C9C8FF"/>
<path d="M125.836 368.923H186.655M247.474 368.923H186.655M186.655 368.923V276.07" stroke="#4A46FF" stroke-width="0.715761"/>
<rect x="115.98" y="113.935" width="141.35" height="185.92" fill="#C9C8FF" stroke="#4A46FF" stroke-width="0.715761"/>
<path d="M178.801 219.354C178.801 216.842 179.429 214.447 180.685 212.171C182.019 209.816 183.589 207.775 185.395 206.048C187.279 204.242 189.124 202.515 190.929 200.866C192.813 199.218 194.383 197.452 195.639 195.568C196.974 193.683 197.641 191.799 197.641 189.915C197.641 185.362 194.737 183.086 188.927 183.086C183.275 183.086 179.036 186.383 176.21 192.977L159.96 183.674C162.55 177.708 166.476 173.076 171.735 169.779C177.073 166.404 183.04 164.716 189.634 164.716C196.856 164.716 203.136 166.836 208.475 171.075C213.813 175.314 216.482 181.045 216.482 188.267C216.482 191.485 215.815 194.508 214.48 197.334C213.224 200.16 211.654 202.554 209.77 204.517C207.964 206.479 206.12 208.285 204.235 209.934C202.43 211.582 200.86 213.191 199.525 214.761C198.269 216.332 197.641 217.862 197.641 219.354H178.801ZM196.11 247.144C193.912 249.342 191.283 250.441 188.221 250.441C185.159 250.441 182.529 249.342 180.331 247.144C178.133 244.946 177.034 242.316 177.034 239.254C177.034 236.193 178.133 233.563 180.331 231.365C182.529 229.167 185.159 228.068 188.221 228.068C191.283 228.068 193.912 229.167 196.11 231.365C198.309 233.563 199.408 236.193 199.408 239.254C199.408 242.316 198.309 244.946 196.11 247.144Z" fill="#4A46FF"/>
</svg>
